<svg width="672" height="690" viewBox="0 0 672 690" fill="none" xmlns="http://www.w3.org/2000/svg">
<path d="M24.779 393.382H173.439C188.506 393.382 197.546 386.686 200.559 373.293L250.783 142.6L338.84 671.283C342.859 695.39 380.025 695.056 384.712 671.283L470.092 271.172L489.845 370.613C492.859 386.016 501.565 393.382 517.3 393.382H647.212C660.603 393.382 671.32 383.003 671.32 369.944C671.32 356.552 660.939 346.172 647.212 346.172H528.685L490.18 175.749C485.158 152.644 450.67 152.644 444.979 176.753L360.939 552.087L273.216 18.7172C269.533 -4.72133 235.046 -5.3899 229.689 18.7172L158.708 346.172H24.779C11.3847 346.172 0.671875 356.886 0.671875 369.944C0.671875 383.003 11.3847 393.382 24.779 393.382Z" fill="#DE9F35"/>
</svg>
