<svg width="2000" height="2000" viewBox="0 0 4000 4000" fill="none" xmlns="http://www.w3.org/2000/svg">
<g clip-path="url(#clip0_327_23)">
<path d="M141.735 2000C141.735 895.431 1037.17 1.81302e-05 2141.73 1.81302e-05H2142.23V100V200V300V400H2141.73C2085.08 400 2029.11 402.945 1973.98 408.689C1917.91 414.531 1862.71 423.267 1808.52 434.747C1753.48 446.406 1699.49 460.895 1646.7 478.054L1677.61 573.185L1708.52 668.316L1739.43 763.448L1770.34 858.579L1801.25 953.71L1832.16 1048.84C1798.78 1059.7 1766.17 1072.26 1734.44 1086.43C1702.44 1100.72 1671.33 1116.64 1641.22 1134.08C1610.94 1151.62 1581.66 1170.7 1553.5 1191.22C1525.26 1211.8 1498.13 1233.82 1472.23 1257.18C1446.3 1280.57 1421.61 1305.29 1398.25 1331.24C1374.92 1357.16 1352.92 1384.31 1332.37 1412.58C1311.88 1440.76 1292.82 1470.05 1275.31 1500.35C1257.9 1530.48 1242.01 1561.61 1227.76 1593.62C1213.62 1625.37 1201.09 1657.99 1190.27 1691.38L1285.4 1722.29L1380.53 1753.2L1475.66 1784.11C1483.23 1760.73 1492 1737.9 1501.89 1715.67C1511.86 1693.26 1522.98 1671.47 1535.17 1650.38C1547.42 1629.16 1560.75 1608.66 1575.09 1588.93C1589.47 1569.14 1604.86 1550.13 1621.19 1531.98C1637.54 1513.81 1654.82 1496.5 1672.97 1480.13C1691.09 1463.77 1710.08 1448.35 1729.85 1433.94C1749.56 1419.58 1770.05 1406.21 1791.24 1393.93C1812.32 1381.72 1834.1 1370.57 1856.49 1360.56L1897.17 1451.94L1937.86 1543.32L1978.54 1634.69L2019.23 1726.07C2009.63 1730.37 2000.3 1735.16 1991.28 1740.4C1982.2 1745.67 1973.42 1751.41 1964.98 1757.57L2024.05 1838.87L2082.55 1919.39C2085.35 1917.32 2088.27 1915.4 2091.29 1913.64C2094.3 1911.88 2097.4 1910.27 2100.59 1908.83C2103.76 1907.4 2107.02 1906.13 2110.35 1905.02C2113.64 1903.94 2117.01 1903.02 2120.45 1902.27C2123.83 1901.54 2127.28 1900.97 2130.78 1900.59C2134.38 1900.2 2138.03 1900 2141.73 1900C2141.9 1900 2142.07 1900 2142.23 1900C2145.76 1900.02 2149.25 1900.22 2152.69 1900.59C2156.19 1900.97 2159.64 1901.54 2163.02 1902.27C2166.46 1903.02 2169.83 1903.94 2173.12 1905.02C2176.45 1906.13 2179.71 1907.4 2182.88 1908.83C2186.07 1910.27 2189.17 1911.88 2192.18 1913.63C2195.19 1915.4 2198.11 1917.32 2200.92 1919.39C2203.74 1921.46 2206.44 1923.67 2209.02 1926.02C2211.6 1928.37 2214.06 1930.85 2216.38 1933.46L2292.61 1864.82L2365.01 1799.63L2439.33 1732.72C2429.99 1722.33 2420.12 1712.43 2409.76 1703.07C2399.41 1693.72 2388.56 1684.91 2377.27 1676.67C2366.01 1668.45 2354.31 1660.81 2342.2 1653.78C2330.16 1646.8 2317.72 1640.42 2304.93 1634.69C2292.24 1629.02 2279.2 1623.98 2265.85 1619.63C2252.66 1615.33 2239.16 1611.69 2225.41 1608.76C2211.86 1605.88 2198.06 1603.68 2184.05 1602.21L2194.5 1502.75C2212.02 1504.59 2229.27 1507.33 2246.2 1510.93C2263.4 1514.59 2280.27 1519.12 2296.76 1524.5C2313.45 1529.93 2329.75 1536.22 2345.61 1543.32C2361.61 1550.47 2377.16 1558.44 2392.21 1567.17C2407.34 1575.94 2421.98 1585.49 2436.05 1595.76C2450.17 1606.05 2463.73 1617.07 2476.67 1628.76C2489.63 1640.46 2501.97 1652.82 2513.64 1665.8C2525.3 1678.77 2536.3 1692.35 2546.57 1706.49C2556.8 1720.59 2566.32 1735.24 2575.07 1750.39C2583.77 1765.46 2591.71 1781.03 2598.82 1797.04C2605.89 1812.92 2612.14 1829.23 2617.55 1845.93C2622.89 1862.43 2627.39 1879.31 2631.01 1896.51L2533.18 1917.31L2435.34 1938.1L2341.29 1958.09L2239.67 1979.69C2240.37 1983.08 2240.9 1986.54 2241.25 1990.04C2241.57 1993.32 2241.73 1996.64 2241.73 2000L2241.73 2000.31L2241.73 2000.5C2241.72 2004.03 2241.52 2007.52 2241.14 2010.95C2240.76 2014.45 2240.2 2017.9 2239.46 2021.29C2238.72 2024.72 2237.8 2028.09 2236.71 2031.39C2235.61 2034.72 2234.34 2037.97 2232.91 2041.14C2231.46 2044.33 2229.86 2047.44 2228.1 2050.44C2226.33 2053.46 2224.41 2056.38 2222.35 2059.19C2220.28 2062 2218.06 2064.71 2215.71 2067.28C2213.36 2069.87 2210.88 2072.33 2208.28 2074.65C2205.67 2076.97 2202.95 2079.16 2200.11 2081.2C2197.28 2083.24 2194.35 2085.13 2191.31 2086.87C2188.29 2088.59 2185.17 2090.17 2181.96 2091.58L2223.1 2183.97L2263.33 2274.34C2253.8 2278.57 2244.01 2282.31 2233.99 2285.55C2224.08 2288.75 2213.96 2291.44 2203.63 2293.61C2193.47 2295.74 2183.11 2297.36 2172.6 2298.43L2183.05 2397.89L2193.5 2497.35C2211.03 2495.55 2228.28 2492.84 2245.22 2489.28C2262.43 2485.66 2279.3 2481.15 2295.81 2475.81C2312.51 2470.41 2328.82 2464.15 2344.7 2457.09C2360.71 2449.97 2376.27 2442.03 2391.34 2433.34C2406.5 2424.59 2421.15 2415.07 2435.24 2404.83C2449.38 2394.56 2462.96 2383.57 2475.93 2371.91C2488.91 2360.24 2501.28 2347.9 2512.97 2334.94L2438.66 2268.03C2448.01 2257.67 2456.83 2246.83 2465.07 2235.54C2473.28 2224.28 2480.93 2212.57 2487.95 2200.47C2494.94 2188.43 2501.31 2175.99 2507.04 2163.19L2598.42 2203.88L2689.79 2244.56L2781.17 2285.24C2771.17 2307.64 2760.02 2329.41 2747.8 2350.49L2834.42 2400.5C2820.38 2424.72 2805.12 2448.14 2788.7 2470.67L2869.61 2529.45C2851.08 2554.87 2831.26 2579.29 2810.24 2602.59L2884.55 2669.51L2958.87 2736.42L3033.18 2803.34C3005.12 2834.45 2975.46 2864.09 2944.33 2892.12C2913.22 2920.12 2880.64 2946.52 2846.72 2971.18C2812.91 2995.77 2777.76 3018.64 2741.4 3039.65C2705.24 3060.55 2667.9 3079.62 2629.48 3096.73C2591.39 3113.7 2552.24 3128.74 2512.18 3141.73C2472.58 3154.57 2432.08 3165.41 2390.79 3174.12C2350.14 3182.7 2308.73 3189.22 2266.68 3193.57C2225.77 3197.81 2184.26 3199.98 2142.23 3200V3100C2180.73 3099.98 2218.76 3097.99 2256.23 3094.11C2294.78 3090.13 2332.73 3084.15 2369.99 3076.29L2349.2 2978.45C2383.6 2971.19 2417.36 2962.17 2450.36 2951.47L2419.45 2856.34C2449.5 2846.6 2478.86 2835.32 2507.43 2822.6L2466.75 2731.22C2492.36 2719.82 2517.26 2707.11 2541.37 2693.19L2491.36 2606.57L2441.35 2519.95C2423.27 2530.39 2404.59 2539.92 2385.38 2548.47C2366.33 2556.94 2346.75 2564.46 2326.72 2570.94C2306.92 2577.35 2286.66 2582.76 2266.02 2587.11C2245.69 2591.39 2224.99 2594.65 2203.96 2596.81C2183.67 2598.9 2163.08 2599.98 2142.23 2600L2141.73 2600C2120.72 2600 2099.96 2598.92 2079.51 2596.81L2089.96 2497.35L2100.42 2397.89C2086.4 2396.45 2072.59 2394.29 2059.04 2391.44C2045.28 2388.55 2031.77 2384.95 2018.57 2380.68C2005.21 2376.36 1992.16 2371.36 1979.46 2365.71L1938.77 2457.09L1898.09 2548.47L1857.41 2639.84L1816.72 2731.22L1776.04 2822.6L1735.35 2913.98L1694.67 3005.35L1653.99 3096.73C1615.57 3079.62 1578.22 3060.55 1542.07 3039.65C1505.71 3018.64 1470.56 2995.77 1436.75 2971.18L1495.53 2890.28L1554.31 2809.37L1613.1 2728.46L1671.88 2647.55L1730.66 2566.65L1789.44 2485.74C1806.36 2498.03 1823.94 2509.45 1842.12 2519.95L1892.13 2433.33L1942.13 2346.72L1992.14 2260.1C1983.05 2254.86 1974.25 2249.15 1965.79 2243.02C1957.3 2236.86 1949.15 2230.27 1941.37 2223.28C1933.57 2216.28 1926.15 2208.88 1919.12 2201.11C1912.11 2193.35 1905.49 2185.22 1899.31 2176.75L1980.46 2117.79C1984.6 2123.4 1989.03 2128.79 1993.72 2133.94C1998.41 2139.09 2003.37 2143.99 2008.58 2148.64C2013.77 2153.27 2019.2 2157.63 2024.86 2161.72C2030.49 2165.78 2036.35 2169.57 2042.4 2173.05C2048.42 2176.51 2054.63 2179.68 2061.02 2182.52C2067.35 2185.34 2073.86 2187.84 2080.52 2190.01C2087.11 2192.16 2093.84 2193.98 2100.7 2195.45C2107.46 2196.9 2114.35 2198.02 2121.34 2198.79C2128.21 2199.53 2135.18 2199.94 2142.23 2199.99C2142.73 2200 2143.23 2200 2143.73 2200C2149.95 2200 2156.1 2199.72 2162.17 2199.18L2151.69 2099.51C2148.58 2099.82 2145.42 2099.98 2142.23 2100C2142.07 2100 2141.9 2100 2141.73 2100C2138.37 2100 2135.05 2099.83 2131.78 2099.51C2128.27 2099.16 2124.82 2098.64 2121.43 2097.94C2117.99 2097.23 2114.61 2096.34 2111.3 2095.28C2107.96 2094.22 2104.69 2092.98 2101.51 2091.58C2098.3 2090.17 2095.18 2088.59 2092.16 2086.87C2089.12 2085.13 2086.18 2083.24 2083.36 2081.2C2080.52 2079.16 2077.8 2076.97 2075.19 2074.65C2072.59 2072.32 2070.1 2069.87 2067.75 2067.28C2065.41 2064.7 2063.19 2062 2061.12 2059.19C2059.06 2056.38 2057.14 2053.46 2055.37 2050.44C2053.61 2047.44 2052.01 2044.33 2050.56 2041.14C2049.13 2037.97 2047.86 2034.72 2046.76 2031.39C2045.67 2028.09 2044.75 2024.72 2044 2021.28C2043.27 2017.9 2042.71 2014.45 2042.33 2010.95C2041.95 2007.52 2041.75 2004.03 2041.74 2000.5L2041.73 2000.22V2000C2041.73 1996.64 2041.9 1993.32 2042.22 1990.05C2042.57 1986.54 2043.1 1983.09 2043.8 1979.7C2044.51 1976.25 2045.4 1972.87 2046.45 1969.57C2047.52 1966.22 2048.76 1962.96 2050.15 1959.77C2051.57 1956.57 2053.14 1953.45 2054.87 1950.43C2056.61 1947.39 2058.5 1944.45 2060.53 1941.62C2062.58 1938.79 2064.76 1936.06 2067.09 1933.46L1993.05 1866.8L1918.45 1799.63L1844.14 1732.72L1769.82 1665.8C1758.16 1678.77 1747.17 1692.35 1736.9 1706.49C1726.67 1720.59 1717.15 1735.24 1708.4 1750.39C1699.7 1765.46 1691.76 1781.03 1684.64 1797.04C1677.58 1812.92 1671.33 1829.23 1665.92 1845.93C1660.58 1862.43 1656.08 1879.31 1652.46 1896.51C1645.43 1929.9 1641.73 1964.52 1641.73 2000V2000.5H1541.73H1441.73C1441.75 2025.21 1443.05 2049.62 1445.57 2073.67C1448.13 2098.2 1451.96 2122.35 1457 2146.06C1462.11 2170.13 1468.45 2193.75 1475.97 2216.85C1483.57 2240.21 1492.37 2263.03 1502.3 2285.24L1410.92 2325.93L1319.54 2366.61L1228.17 2407.29C1214 2375.56 1201.43 2342.95 1190.58 2309.58C1179.85 2276.58 1170.78 2242.84 1163.49 2208.44C1156.31 2174.58 1150.84 2140.07 1147.19 2105.03C1143.6 2070.68 1141.75 2035.8 1141.73 2000.5H1041.73H941.735V2000C941.735 1914.61 950.654 1831.29 967.613 1750.95C976.327 1709.66 987.164 1669.16 1000 1629.56C1012.99 1589.49 1028.04 1550.35 1045 1512.25C1062.11 1473.84 1081.18 1436.49 1102.08 1400.33C1123.09 1363.98 1145.96 1328.83 1170.55 1295.01C1195.22 1261.09 1221.62 1228.51 1249.62 1197.41C1277.65 1166.27 1307.29 1136.61 1338.4 1108.55C1369.48 1080.53 1402.04 1054.1 1435.94 1029.41C1469.73 1004.79 1504.86 981.892 1541.2 960.847L1491.19 874.23L1441.18 787.614L1391.18 700.997L1341.17 614.38L1291.16 527.763L1241.15 441.146C1186.64 472.705 1133.94 507.042 1083.24 543.962C1032.39 580.995 983.548 620.627 936.918 662.663C890.242 704.741 845.78 749.227 803.728 795.927C761.717 842.58 722.112 891.442 685.106 942.317C648.215 993.036 613.908 1045.76 582.379 1100.28C551.021 1154.51 522.411 1210.53 496.739 1268.15C471.28 1325.29 448.71 1384 429.216 1444.1C409.948 1503.5 393.684 1564.25 380.604 1626.17C355.133 1746.77 341.735 1871.82 341.735 2000V2000.5H241.736H141.734L141.735 2000Z" fill="url(#paint0_linear_327_23)"/>
<path d="M2711.76 720.922C2667.34 701.091 2621.68 683.508 2574.95 668.316L2544.04 763.448L2513.13 858.579L2482.22 953.71L2451.31 1048.84L2420.4 1143.97C2390.71 1134.31 2360.34 1126.16 2329.38 1119.59C2298.9 1113.13 2267.85 1108.2 2236.32 1104.91C2205.39 1101.68 2174.01 1100.02 2142.23 1100H2141.73C2109.79 1100 2078.24 1101.66 2047.15 1104.91L2057.61 1204.37L2068.06 1303.83C2092.27 1301.3 2116.85 1300 2141.73 1300H2142.23C2166.95 1300.02 2191.36 1301.32 2215.41 1303.83C2239.94 1306.4 2264.09 1310.23 2287.79 1315.26C2311.87 1320.37 2335.49 1326.72 2358.58 1334.24C2381.94 1341.84 2404.77 1350.64 2426.98 1360.56C2449.37 1370.57 2471.15 1381.72 2492.23 1393.93L2542.23 1307.31L2592.24 1220.7L2642.25 1134.08L2692.26 1047.46C2725.57 1066.76 2757.77 1087.75 2788.75 1110.31C2819.82 1132.95 2849.66 1157.17 2878.16 1182.87C2906.68 1208.59 2933.84 1235.78 2959.53 1264.32C2985.2 1292.84 3009.4 1322.7 3032.01 1353.79C3054.55 1384.79 3075.51 1417.02 3094.77 1450.34C3113.93 1483.49 3131.41 1517.72 3147.09 1552.94C3162.64 1587.86 3176.43 1623.74 3188.33 1660.47C3200.1 1696.77 3210.03 1733.89 3218.02 1771.74C3225.88 1809 3231.86 1846.96 3235.85 1885.51C3239.74 1923.14 3241.73 1961.34 3241.73 2000V2000.5C3241.72 2039.33 3239.69 2077.7 3235.74 2115.49C3231.72 2154.03 3225.71 2191.99 3217.81 2229.24L3315.65 2250.04L3413.48 2270.83L3511.32 2291.63C3521.36 2244.21 3529.01 2195.91 3534.12 2146.85C3539.14 2098.75 3541.72 2049.92 3541.73 2000.5V2000C3541.73 1950.75 3539.19 1902.09 3534.23 1854.15C3529.15 1805.09 3521.54 1756.78 3511.53 1709.35C3501.36 1661.19 3488.71 1613.94 3473.73 1567.74C3458.57 1520.99 3441.02 1475.33 3421.22 1430.88C3401.26 1386.07 3379.01 1342.5 3354.62 1300.32C3330.1 1257.9 3303.42 1216.9 3274.73 1177.45C3245.95 1137.87 3215.15 1099.87 3182.48 1063.58C3149.78 1027.26 3115.2 992.653 3078.9 959.923C3042.63 927.225 3004.65 896.397 2965.1 867.591C2925.67 838.872 2884.68 812.163 2842.28 787.613C2800.12 763.197 2756.56 740.917 2711.76 720.922Z" fill="url(#paint1_linear_327_23)"/>
<path d="M3948.3 2587.52C3968.77 2524.88 3986.07 2460.81 4000 2395.5L3902.66 2374.81C3889.54 2436.73 3873.25 2497.47 3853.94 2556.86C3834.42 2616.94 3811.81 2675.64 3786.32 2732.77L3694.94 2692.08C3670.67 2746.48 3643.62 2799.37 3613.97 2850.58C3584.16 2902.06 3551.74 2951.83 3516.87 2999.71C3481.89 3047.74 3444.46 3093.86 3404.76 3137.9L3330.44 3070.99C3293.04 3112.48 3253.49 3152 3211.98 3189.38C3170.51 3226.72 3127.08 3261.92 3081.85 3294.81C3036.77 3327.6 2989.91 3358.1 2941.43 3386.12L2891.43 3299.51C2846.23 3325.63 2799.55 3349.47 2751.53 3370.86C2703.92 3392.08 2654.99 3410.88 2604.91 3427.12C2555.41 3443.18 2504.78 3456.73 2453.18 3467.63C2402.37 3478.35 2350.61 3486.51 2298.04 3491.95C2246.83 3497.26 2194.85 3499.98 2142.23 3500H2141.73C2088.95 3500 2036.8 3497.27 1985.43 3491.95C1932.86 3486.51 1881.1 3478.35 1830.29 3467.63C1778.69 3456.73 1728.06 3443.18 1678.56 3427.12C1628.48 3410.88 1579.55 3392.08 1531.94 3370.86C1483.92 3349.47 1437.24 3325.63 1392.04 3299.5C1346.6 3273.23 1302.67 3244.65 1260.4 3213.91C1218 3183.07 1177.28 3150.07 1138.4 3115.06C1099.48 3080.02 1062.41 3042.97 1027.34 3004.07C992.311 2965.22 959.281 2924.52 928.418 2882.14C897.649 2839.9 869.033 2795.98 842.731 2750.56C816.572 2705.38 792.702 2658.71 771.279 2610.71C750.034 2563.11 731.195 2514.2 714.919 2464.13L619.789 2495.04C637.148 2548.44 657.241 2600.62 679.902 2651.4C702.751 2702.6 728.212 2752.38 756.114 2800.57C784.169 2849.02 814.691 2895.86 847.511 2940.93L766.603 2999.71C801.579 3047.74 839.01 3093.86 878.712 3137.9C918.453 3181.98 960.469 3223.98 1004.57 3263.69C1048.64 3303.37 1094.78 3340.77 1142.83 3375.72C1190.74 3410.56 1240.53 3442.96 1292.03 3472.74L1242.02 3559.36C1296.25 3590.71 1352.27 3619.32 1409.88 3645C1467.02 3670.45 1525.73 3693.02 1585.83 3712.52C1645.23 3731.79 1705.98 3748.05 1767.91 3761.13C1828.88 3774.01 1890.99 3783.8 1954.07 3790.33L1944.03 3885.85C2009.01 3892.56 2074.97 3896 2141.73 3896H2142.23C2208.83 3895.98 2274.62 3892.54 2339.44 3885.85C2405.89 3878.99 2471.32 3868.7 2535.55 3855.18C2600.8 3841.44 2664.81 3824.36 2727.4 3804.12C2790.74 3783.64 2852.62 3759.93 2912.85 3733.18C2973.59 3706.2 3032.66 3676.13 3089.84 3643.17C3147.36 3610.03 3202.97 3573.96 3256.48 3535.17C3310.17 3496.25 3361.74 3454.59 3410.99 3410.39C3460.3 3366.14 3507.28 3319.36 3551.72 3270.23C3596.14 3221.14 3638.02 3169.72 3677.17 3116.18C3716.2 3062.78 3752.52 3007.26 3785.9 2949.84C3819.12 2892.71 3849.43 2833.69 3876.65 2772.98C3903.65 2712.76 3927.6 2650.87 3948.3 2587.52Z" fill="url(#paint2_linear_327_23)"/>
<path d="M3092.44 354.327C3035.2 321.217 2976.07 291.005 2915.25 263.891C2854.94 237.005 2792.97 213.166 2729.53 192.571C2666.84 172.217 2602.71 155.03 2537.35 141.201L2516.54 239.078C2578.46 252.192 2639.2 268.489 2698.59 287.791L2667.68 382.922C2724.43 401.366 2779.86 422.714 2833.82 446.79C2888.22 471.067 2941.11 498.117 2992.31 527.762C3043.79 557.569 3093.56 589.999 3141.44 624.869C3189.47 659.845 3235.6 697.276 3279.64 736.978C3323.72 776.718 3365.71 818.734 3405.43 862.84C3445.1 906.902 3482.51 953.05 3517.45 1001.1C3552.3 1049 3584.7 1098.79 3614.47 1150.29C3644.09 1201.51 3671.11 1254.42 3695.35 1308.83C3719.4 1362.8 3740.71 1418.25 3759.12 1475.01C3777.32 1531.1 3792.68 1588.48 3805.03 1646.97C3817.19 1704.55 3826.44 1763.21 3832.61 1822.79L3932.07 1812.33C3925.53 1749.25 3915.74 1687.14 3902.86 1626.17C3889.78 1564.25 3873.52 1503.49 3854.25 1444.1C3834.76 1384 3812.19 1325.29 3786.73 1268.15C3761.06 1210.53 3732.45 1154.51 3701.09 1100.28L3788.14 1050.02C3754.85 992.455 3718.62 936.795 3679.66 883.248C3640.58 829.543 3598.76 777.963 3554.39 728.716C3509.98 679.426 3463.02 632.473 3413.72 588.064C3364.48 543.704 3312.9 501.882 3259.19 462.804C3205.66 423.851 3150 387.624 3092.44 354.327Z" fill="url(#paint3_linear_327_23)"/>
</g>
<defs>
<linearGradient id="paint0_linear_327_23" x1="2070.87" y1="0" x2="2070.87" y2="3896" gradientUnits="userSpaceOnUse">
<stop stop-color="#007089"/>
<stop offset="1" stop-color="#00272F"/>
</linearGradient>
<linearGradient id="paint1_linear_327_23" x1="2070.87" y1="0" x2="2070.87" y2="3896" gradientUnits="userSpaceOnUse">
<stop stop-color="#007089"/>
<stop offset="1" stop-color="#00272F"/>
</linearGradient>
<linearGradient id="paint2_linear_327_23" x1="2070.87" y1="0" x2="2070.87" y2="3896" gradientUnits="userSpaceOnUse">
<stop stop-color="#007089"/>
<stop offset="1" stop-color="#00272F"/>
</linearGradient>
<linearGradient id="paint3_linear_327_23" x1="2070.87" y1="0" x2="2070.87" y2="3896" gradientUnits="userSpaceOnUse">
<stop stop-color="#007089"/>
<stop offset="1" stop-color="#00272F"/>
</linearGradient>
<clipPath id="clip0_327_23">
<rect width="4000" height="4000" fill="white"/>
</clipPath>
</defs>
</svg>
