<svg width="400" height="400" viewBox="0 0 400 400" fill="none" xmlns="http://www.w3.org/2000/svg">
<g clip-path="url(#clip0_3_18)">
<path fill-rule="evenodd" clip-rule="evenodd" d="M225.91 1.69401C225.91 1.79101 225.333 6.23101 224.627 11.561C223.921 16.892 223.27 21.863 223.18 22.608C223.091 23.353 222.498 27.887 221.863 32.684C221.229 37.481 220.73 41.43 220.754 41.46C220.778 41.49 222.271 41.742 224.073 42.02C234.964 43.701 245.648 46.483 255.947 50.317C269.398 55.325 283.301 62.855 294.603 71.254C297.272 73.238 297.509 73.356 297.822 72.854C297.927 72.687 300.523 69.277 303.593 65.276C306.662 61.275 309.262 57.837 309.369 57.635C309.602 57.198 309.277 56.902 305.673 54.283C288.776 42.002 268.774 32.312 248.871 26.765C247.855 26.482 246.988 26.215 246.945 26.172C246.903 26.129 247.982 21.937 249.344 16.856C252.195 6.22001 252.11 6.75401 251.016 6.45501C245.412 4.92701 234.988 2.83201 228.62 1.95301C227.549 1.80501 226.501 1.64701 226.291 1.60101C226.082 1.55501 225.91 1.59701 225.91 1.69401ZM75.021 43.719C19.6301 88.376 -7.70896 156.963 1.79004 227.434C3.01604 236.527 6.26904 251.957 6.94304 251.874C7.08304 251.857 11.312 250.732 16.342 249.374C21.372 248.016 25.668 246.871 25.889 246.83C26.442 246.727 26.523 246.607 26.292 246.237C25.51 244.986 22.065 227.742 21.961 224.562L21.931 223.637L31.16 222.414C36.236 221.742 40.732 221.152 41.152 221.105C41.571 221.057 45.305 220.563 49.45 220.008C53.594 219.452 57.009 219.02 57.037 219.048C57.065 219.075 57.279 220.383 57.512 221.954C60.059 239.127 65.804 255.609 74.902 271.846C77.712 276.86 85.28 287.973 85.805 287.855C85.922 287.829 88.388 285.978 91.285 283.743C94.182 281.507 96.753 279.526 96.998 279.34C97.243 279.153 101.677 275.757 106.85 271.792C112.024 267.827 116.462 264.449 116.712 264.286L117.167 263.989L116.374 263.002C109.986 255.063 103.17 241.747 99.903 230.821C99.527 229.564 99.072 228.258 98.89 227.919C98.709 227.581 98.561 227.076 98.561 226.799C98.561 226.521 98.259 224.969 97.89 223.35C97.16 220.145 96.412 215.986 96.328 214.658L96.274 213.821L105.419 212.6C117.083 211.043 116.041 211.233 115.932 210.688C114.661 204.327 115.264 190.583 117.198 181.825C118.159 177.471 120.948 168.637 121.578 167.95C121.671 167.848 125.982 169.537 128.73 170.752C129.232 170.975 131.695 171.99 140.135 175.454C145.643 177.715 147.926 178.679 148.041 178.795C148.109 178.862 147.907 179.603 147.593 180.441C146.807 182.538 145.892 185.576 146.011 185.695C146.095 185.779 156.148 188.51 162.828 190.264C165.78 191.039 168.235 191.723 168.304 191.789C168.335 191.819 168.202 192.622 168.008 193.574C167.474 196.191 167.473 196.189 168.544 196.195C169.033 196.198 169.776 196.257 170.195 196.326L170.957 196.452L170.899 199.857C170.831 203.819 171.159 206.264 172.165 209.294C172.485 210.26 172.726 211.07 172.699 211.092C172.672 211.115 171.964 211.409 171.126 211.746C170.27 212.09 169.625 212.446 169.654 212.557C169.915 213.568 172.265 217.852 173.503 219.576C173.747 219.915 173.7 219.975 172.442 220.92C171.718 221.464 171.058 221.967 170.976 222.037C170.788 222.196 173.103 224.895 174.878 226.588C177.17 228.773 177.561 229.087 180.102 230.802C180.847 231.304 181.434 231.793 181.406 231.887C181.378 231.981 180.978 232.696 180.516 233.477C179.41 235.35 179.335 235.196 182.01 236.553C186.916 239.043 193.916 240.813 198.856 240.813H200V248.391V255.97L197.418 255.863C194.951 255.762 194.181 255.677 190.517 255.105C177.094 253.009 163.811 244.773 155.256 233.24C154.05 231.615 151.905 228.325 151.905 228.102C151.905 228.034 152.934 227.389 154.191 226.669C155.449 225.949 156.478 225.292 156.478 225.209C156.478 225.126 156.015 224.135 155.449 223.007C153.769 219.656 151.736 214.264 151.736 213.161C151.736 212.946 151.668 212.696 151.585 212.608C151.429 212.441 150.653 208.704 150.453 207.157C150.35 206.365 150.299 206.279 149.978 206.351C149.321 206.499 139.327 207.79 138.838 207.79C138.391 207.79 138.357 207.837 138.357 208.456C138.357 210.757 140.128 217.888 141.715 221.982L142.375 223.682L139.307 224.95C136.294 226.195 136.241 226.226 136.287 226.699C136.424 228.137 141.189 236.703 143.917 240.417C144.492 241.199 144.959 241.894 144.955 241.961C144.948 242.065 140.262 245.668 139.301 246.308C138.591 246.781 146.048 254.871 150.85 258.836C152.082 259.854 153.091 260.743 153.091 260.812C153.091 260.997 148.501 266.954 148.237 267.113C148.112 267.187 148.01 267.322 148.01 267.412C148.01 267.502 146.853 269.08 145.439 270.918C144.024 272.755 142.284 275.021 141.571 275.953C140.858 276.884 129.117 292.208 115.48 310.005C101.843 327.802 90.533 342.566 90.347 342.813C90.161 343.06 87.398 346.655 84.208 350.802C81.018 354.949 78.408 358.483 78.408 358.656C78.408 359 80.621 360.698 85.751 364.291C95.89 371.393 107.667 378.019 119.223 383.123C123.95 385.211 123.657 385.15 124.091 384.135C124.283 383.687 125.825 379.966 127.517 375.868C129.209 371.77 130.775 367.997 130.996 367.485C131.216 366.973 133.046 362.553 135.061 357.663C137.077 352.773 138.828 348.544 138.952 348.264C139.076 347.985 140.523 344.479 142.168 340.474C143.812 336.469 145.527 332.316 145.978 331.245C147.857 326.778 150.042 321.403 150.042 321.246C150.042 321.153 150.227 320.717 150.453 320.276C150.678 319.836 152.781 314.826 155.125 309.145C157.469 303.463 159.568 298.395 159.789 297.883C160.01 297.371 161.21 294.475 162.456 291.448C163.701 288.421 165.389 284.329 166.206 282.355L167.692 278.767L168.562 279.125C170.225 279.81 176.803 281.971 177.528 282.071L178.258 282.171L179.31 278.225C179.889 276.055 180.388 274.255 180.418 274.225C180.448 274.195 181.418 274.396 182.573 274.671C184.574 275.148 187.534 275.699 189.458 275.952C190.222 276.053 190.347 276.029 190.347 275.787C190.347 275.449 192.016 262.558 192.125 262.055C192.197 261.721 192.257 261.713 193.518 261.873C195.513 262.126 204.326 262.106 206.52 261.843C210.123 261.413 215.798 260.307 216.135 259.97C216.273 259.832 215.755 257.812 211.785 243.02C211.274 241.114 210.883 239.526 210.917 239.492C210.951 239.458 211.995 239.092 213.237 238.678C216.235 237.68 220.083 235.783 222.719 234.005L224.861 232.559L225.68 233.68C226.131 234.297 226.77 235.106 227.102 235.478C227.433 235.851 227.834 236.362 227.991 236.613C228.301 237.108 233.249 243.564 234.065 244.539C234.338 244.865 235.203 246.008 235.986 247.079C236.77 248.15 237.6 249.255 237.83 249.534C238.061 249.814 238.979 250.995 239.871 252.159C240.764 253.323 242.56 255.661 243.863 257.354C245.166 259.047 246.232 260.501 246.232 260.586C246.232 261.18 238.058 266.304 233.616 268.494C229.396 270.574 221.182 273.666 219.875 273.666C219.7 273.666 219.633 273.771 219.685 273.963C223.484 287.984 224.217 290.76 224.217 291.116C224.217 291.563 224.331 291.549 226.943 290.782C245.901 285.219 265.109 271.869 275.693 256.9C275.923 256.574 276.663 255.54 277.336 254.601C278.296 253.262 280.508 249.843 281.758 247.765C282.029 247.314 290.65 252.43 290.401 252.894C289.472 254.63 286.895 258.551 284.729 261.525C283.861 262.717 283.15 263.76 283.15 263.841C283.15 263.922 284.922 265.344 287.087 267C289.253 268.656 291.388 270.296 291.833 270.644L292.641 271.277L291.099 273.192C283.277 282.905 272.996 292.132 262.78 298.607C257.594 301.893 251.278 305.256 246.655 307.189C245.724 307.579 244.722 308.007 244.428 308.14C236.066 311.942 222.759 315.221 210.669 316.459C206.508 316.885 193.419 316.889 189.416 316.466C187.925 316.308 186.249 316.131 185.69 316.072L184.674 315.964L184.113 320.345C183.804 322.754 183.405 325.792 183.226 327.096C183.046 328.4 182.555 332.134 182.134 335.394C181.713 338.654 181.29 341.854 181.193 342.506C181.097 343.158 180.6 346.928 180.088 350.884C179.577 354.839 179.118 358.237 179.068 358.434C178.972 358.817 181.048 359.105 188.484 359.74C195.122 360.306 211.215 359.954 218.036 359.093C219.153 358.952 220.754 358.759 221.592 358.665C231.199 357.583 245.396 354.038 255.97 350.08C257.902 349.357 261.299 348.026 261.897 347.758C262.176 347.633 263.395 347.097 264.606 346.567C267.494 345.302 274.465 341.87 276.715 340.604C277.693 340.054 278.912 339.374 279.424 339.092C295.154 330.445 312.513 315.659 324.495 300.7C325.624 299.291 326.701 298.002 326.889 297.836C327.376 297.405 327.321 297.355 320.66 292.257C317.494 289.833 314.839 287.791 314.762 287.721C314.684 287.651 315.273 286.712 316.069 285.636C322.405 277.073 328.293 266.817 332.461 257.082C333.272 255.189 333.358 254.699 332.882 254.699C332.752 254.699 330.14 253.661 327.077 252.392C324.013 251.124 321.05 249.91 320.491 249.695C319.932 249.481 317.913 248.644 316.003 247.836C314.094 247.029 311.541 245.963 310.33 245.468C309.119 244.974 303.594 242.687 298.052 240.386C292.511 238.086 287.367 235.955 286.622 235.65C285.876 235.345 283.752 234.47 281.9 233.705C279.234 232.603 278.502 232.361 278.383 232.541C278.3 232.666 277.987 233.302 277.686 233.954C273.242 243.591 268.482 250.786 261.854 257.889L260.063 259.808L252.048 251.794L244.034 243.781L245.277 242.509C248.594 239.114 251.643 234.94 254.362 230.074C257.836 223.854 261.473 212.924 261.473 208.702C261.473 208.323 261.526 208.292 262.024 208.376C263.922 208.696 304.045 213.877 304.112 213.811C304.392 213.531 304.996 205.839 304.996 202.551V200.169H324.582H344.169L344.057 196.232C343.921 191.443 343.126 181.183 342.871 180.922C342.857 180.908 336.865 181.687 329.555 182.653C322.246 183.62 316.219 184.356 316.162 184.288C316.105 184.221 315.929 183.251 315.769 182.134C315.418 179.669 314.524 175.142 313.786 172.096C313.487 170.862 313.273 169.829 313.31 169.801C313.348 169.773 319.189 168.198 326.291 166.302C333.393 164.405 339.204 162.779 339.204 162.687C339.204 161.838 336.038 152.141 334.384 147.923C333.77 146.356 333.326 145.014 333.399 144.942C333.471 144.869 336.312 143.658 339.712 142.25C343.112 140.842 346.389 139.474 346.994 139.209C347.599 138.945 352.019 137.112 356.816 135.135C361.613 133.159 365.66 131.478 365.81 131.4C366.038 131.281 366.268 131.73 367.231 134.173C372.052 146.403 375.728 159.865 377.552 171.973C377.791 173.556 378.063 175.309 378.158 175.868C378.348 177 378.904 182.226 379.165 185.351C380.079 196.27 379.763 213.119 378.482 221.677C378.392 222.282 378.241 223.425 378.147 224.217C377.467 229.949 375.292 241.048 373.932 245.724C373.756 246.329 373.254 248.12 372.817 249.704C371.414 254.783 368.177 264.149 366.539 267.87C366.323 268.361 366.139 268.797 366.131 268.841C365.774 270.731 356.583 289.261 355.74 289.79C355.614 289.869 355.606 289.965 355.717 290.073C356.015 290.362 372.935 300.085 373.14 300.085C373.81 300.085 384.759 278.233 384.759 276.896C384.759 276.796 384.835 276.715 384.928 276.715C385.021 276.715 385.097 276.615 385.097 276.492C385.097 276.37 385.829 274.37 386.722 272.047C404.507 225.823 404.53 174.333 386.786 128.112C383.266 118.941 377.178 106.18 373.254 99.746C373.169 99.606 372.411 98.349 371.569 96.952C368.317 91.552 364.307 85.58 360.638 80.671C359.654 79.355 358.848 78.193 358.848 78.089C358.848 77.985 358.814 77.9 358.773 77.9C358.716 77.9 328.366 101.141 326.588 102.547C326.401 102.694 318.649 108.652 309.36 115.786L292.472 128.759L293.058 129.536C298.32 136.51 302.812 144.023 306.268 151.629C307.067 153.386 307.696 154.897 307.666 154.986C307.636 155.076 305.213 156.142 302.282 157.356C299.35 158.57 296.933 159.579 296.911 159.599C296.817 159.683 297.405 161.488 298.379 164.098C299.264 166.471 300.001 168.804 301.35 173.497C301.811 175.101 302.781 179.599 303.193 182.049C303.851 185.959 303.866 186.113 303.588 186.113C303.335 186.113 296.045 187.055 291.787 187.637C290.436 187.822 286.397 188.355 282.811 188.822C279.225 189.289 275.224 189.818 273.92 189.997C272.616 190.176 269.378 190.596 266.723 190.93C264.069 191.263 261.478 191.607 260.965 191.694C260.453 191.781 259.014 191.983 257.768 192.143L255.502 192.435L255.63 193.804C255.7 194.557 255.805 196.26 255.863 197.587L255.97 200H253.133H250.296L250.289 201.905C250.282 203.72 250.077 206.203 249.922 206.358C249.862 206.418 240.606 205.265 240.537 205.189C240.525 205.176 240.577 204.479 240.652 203.641C240.727 202.803 240.794 201.641 240.801 201.058L240.813 200H238.807H236.801L236.688 197.514C236.626 196.147 236.555 195.009 236.531 194.985C236.507 194.961 235.586 195.062 234.484 195.21L232.48 195.479L232.576 196.088C232.63 196.423 232.725 197.441 232.788 198.349L232.904 200H229.939H226.975L226.856 198.264C226.709 196.102 226.233 193.814 225.476 191.626C225.156 190.699 224.951 189.892 225.021 189.832C225.136 189.733 226.579 189.163 227.302 188.931C227.63 188.826 227.582 188.688 226.453 186.499C226.155 185.92 225.91 185.406 225.91 185.358C225.91 185.311 226.52 184.917 227.265 184.484C228.01 184.051 228.62 183.625 228.62 183.537C228.62 183.137 226.283 179.987 224.315 177.734L223.482 176.78L224.738 175.512L225.995 174.244L225.148 173.445C224.682 173.006 223.889 172.297 223.386 171.869L222.47 171.091L223.555 169.683C226.378 166.019 227.577 164.361 227.496 164.231C227.222 163.787 222.174 160.69 220.018 159.644L217.486 158.414L219.487 153.593C221.85 147.904 221.149 148.306 225.197 150.321C226.807 151.123 228.146 151.75 228.172 151.715C228.637 151.087 231.003 146.734 231.034 146.452C231.071 146.105 230.701 145.874 227.604 144.311C225.694 143.347 224.154 142.471 224.181 142.363C224.453 141.275 226.529 136.664 226.746 136.666C227.078 136.669 231.945 139.038 233.87 140.133C238.369 142.695 243.467 146.488 247.011 149.909C247.858 150.728 248.621 151.397 248.706 151.397C248.791 151.397 250.002 150.254 251.397 148.857C252.792 147.46 253.983 146.317 254.043 146.317C254.799 146.317 262.193 155.663 264.877 160.012C265.473 160.978 266.051 161.803 266.16 161.846C266.27 161.888 267.794 161.09 269.547 160.072C271.301 159.053 272.987 158.09 273.296 157.932L273.857 157.644L273.398 156.849C268.308 148.034 258.763 137.361 251.036 131.844C249.246 130.566 245.734 128.199 244.369 127.352C243.577 126.861 242.903 126.436 242.87 126.407C242.838 126.379 245.029 122.513 247.739 117.817C250.45 113.12 252.666 109.21 252.665 109.127C252.662 108.93 248.524 106.692 245.379 105.185C236.192 100.782 225.708 97.56 215.84 96.107C214.818 95.957 213.97 95.819 213.956 95.8C213.941 95.782 214.26 93.29 214.664 90.262C215.068 87.235 215.402 84.566 215.405 84.331L215.411 83.903L212.235 83.602C203.387 82.765 196.076 82.764 187.847 83.599C186.332 83.753 185.048 83.834 184.993 83.78C184.939 83.725 184.258 78.855 183.48 72.958C182.702 67.061 181.91 61.092 181.72 59.695C181.047 54.744 179.34 41.674 179.34 41.475C179.34 41.186 177.726 41.362 172.93 42.174C162.647 43.914 151.732 46.909 142.422 50.547C141.071 51.075 139.642 51.632 139.246 51.785C138.537 52.059 138.384 52.275 138.676 52.591C138.757 52.68 143.488 64.03 149.188 77.815C154.888 91.6 159.61 102.993 159.682 103.133C159.755 103.273 160.674 105.483 161.726 108.044C162.777 110.605 163.775 113.006 163.942 113.378C164.109 113.751 164.937 115.73 165.783 117.776C167.422 121.74 167.516 121.914 167.859 121.639C168.371 121.229 175.073 118.892 177.515 118.272C196.321 113.494 213.511 114.374 230.674 120.992L232.305 121.621L231.489 123.596C229.673 127.994 229.165 129.126 229.023 129.093C228.941 129.073 227.845 128.679 226.588 128.217C224.748 127.54 222.212 126.709 219.982 126.052C219.78 125.993 219.537 126.693 218.814 129.415C217.723 133.523 217.96 133.203 216.324 132.789C214.833 132.413 211.041 131.673 209.738 131.504L208.891 131.395L208.049 137.938L207.207 144.481L206.694 144.379C205.546 144.15 197.105 144.074 194.97 144.273C190.968 144.648 185.816 145.674 185.64 146.132C185.547 146.374 186.125 148.874 186.799 151.143C186.965 151.702 187.264 152.807 187.463 153.599C187.663 154.39 187.971 155.533 188.148 156.139C188.325 156.744 188.672 158.05 188.921 159.041C189.536 161.496 189.344 161.346 191.307 160.905C195.497 159.965 204.316 159.552 205.027 160.263C205.074 160.309 204.711 163.404 204.222 167.14C203.202 174.922 203.089 174.171 205.347 174.609C210.428 175.593 214.88 177.972 218.713 181.751L220.745 183.755L219.983 184.421C219.564 184.788 219.157 185.09 219.079 185.092C219.001 185.095 218.734 185.28 218.486 185.503C218.238 185.727 217.775 186.134 217.457 186.408L216.878 186.907L217.822 188.331C218.819 189.833 219.734 191.61 220.322 193.182C220.723 194.253 220.684 194.322 219.563 194.508C219.189 194.57 218.677 194.726 218.425 194.855C218.173 194.984 217.734 195.089 217.449 195.089C217.164 195.089 216.798 195.163 216.636 195.253C216.251 195.468 212.71 196.381 211.556 196.563C211.253 196.611 210.963 196.718 210.911 196.801C210.86 196.884 210.631 196.952 210.403 196.952C210.174 196.952 209.855 197.021 209.693 197.105C209.531 197.19 208.484 197.5 207.367 197.796C206.249 198.092 205.201 198.371 205.038 198.416C204.807 198.481 204.742 198.683 204.742 199.334V200.169H212.156H219.571L219.506 201.32C219.424 202.771 219.447 202.789 221.677 203.037C222.655 203.146 224.112 203.346 224.916 203.482C225.719 203.618 227.091 203.801 227.964 203.889C232.88 204.386 232.689 204.258 232.184 206.735C231.993 207.67 231.837 208.507 231.837 208.593C231.837 208.68 232.314 208.88 232.896 209.037C233.478 209.195 234.335 209.434 234.801 209.569C235.267 209.703 237.134 210.2 238.95 210.673C240.766 211.146 242.595 211.641 243.014 211.772C243.434 211.904 244.862 212.292 246.19 212.634C247.517 212.977 248.603 213.324 248.603 213.405C248.603 213.739 247.333 217.478 246.648 219.162C244.481 224.485 241.53 229.166 237.415 233.806L235.839 235.583L229.612 229.357L223.384 223.132L222.234 224.232C214.906 231.246 203.842 234.31 193.579 232.169C191.608 231.758 191.72 231.913 192.184 230.261C192.398 229.498 192.717 228.264 192.892 227.519C193.067 226.774 193.409 225.489 193.65 224.663C193.892 223.837 194.067 223.147 194.039 223.13C194.011 223.113 193.531 222.96 192.972 222.791C184.147 220.116 177.313 211.429 176.669 202.067L176.538 200.169H185.983H195.428V199.656C195.428 199.128 196.124 197.573 196.452 197.37C196.712 197.209 196.221 196.707 195.004 195.889C194.445 195.514 193.455 194.784 192.803 194.267C191.538 193.264 189.92 191.984 189.497 191.651C189.356 191.539 188.632 190.987 187.888 190.424C187.145 189.861 185.904 188.908 185.13 188.307C184.357 187.706 183.313 186.909 182.81 186.537C182.307 186.164 180.809 185.031 179.48 184.018L177.064 182.178L176.582 182.748C176.317 183.062 175.829 183.755 175.498 184.287L174.896 185.254L174.366 184.981C174.074 184.831 173.542 184.523 173.184 184.297C172.825 184.071 172.178 183.69 171.744 183.45C169.648 182.29 158.381 175.789 157.155 175.032C156.829 174.831 155.553 174.098 154.319 173.404C153.085 172.71 152.075 172.06 152.075 171.959C152.073 171.167 157.923 163.466 160.097 161.398C160.93 160.606 161.002 160.743 158.37 158.115L156.028 155.778L154.404 157.552C153.512 158.528 152.306 159.905 151.726 160.612C151.045 161.441 150.604 161.847 150.484 161.755C150.381 161.676 148.848 160.508 147.079 159.159C141.253 154.718 139.797 153.587 139.754 153.465C139.694 153.293 143.142 149.214 144.825 147.466L146.246 145.991L136.025 135.781L125.805 125.572L123.938 127.501C109.528 142.393 99.818 161.89 96.303 182.985L95.766 186.208L86.452 184.984C81.329 184.311 72.721 183.181 67.322 182.473C61.923 181.765 57.491 181.17 57.474 181.152C57.299 180.958 58.934 171.85 59.883 167.739C61.506 160.702 64.604 150.993 66.955 145.58C67.082 145.286 67.708 143.827 68.346 142.337C70.039 138.383 73.566 131.433 75.523 128.196C75.608 128.057 76.307 126.876 77.078 125.572C78.766 122.715 81.546 118.549 84.138 114.992C85.664 112.897 86 112.337 85.813 112.198C85.685 112.102 82.858 109.928 79.532 107.367C76.206 104.805 73.282 102.557 73.036 102.371C70.284 100.291 57.948 90.847 57.781 90.692C57.603 90.527 57.911 90.048 59.374 88.216C67.634 77.87 77.955 67.572 88.362 59.293C90.014 57.979 90.731 57.309 90.626 57.178C90.541 57.072 87.902 53.633 84.76 49.534C78.689 41.615 78.45 41.318 78.167 41.326C78.067 41.328 76.651 42.405 75.021 43.719Z" fill="#5E9FDA"/>
</g>
<defs>
<clipPath id="clip0_3_18">
<rect width="400" height="400" fill="white"/>
</clipPath>
</defs>
</svg>
