<svg width="400" height="400" viewBox="0 0 400 400" fill="none" xmlns="http://www.w3.org/2000/svg">
<g clip-path="url(#clip0_3_12)">
<path fill-rule="evenodd" clip-rule="evenodd" d="M199.831 10.038C199.831 19.505 199.812 20.132 199.534 20.205C199.252 20.279 199.252 20.283 199.534 20.302C199.919 20.328 200.003 39.868 199.619 40.023C199.452 40.091 199.452 40.112 199.622 40.122C199.793 40.133 199.835 41.805 199.827 48.222L199.817 56.308L203.931 56.42C233.276 57.217 261.499 66.968 285.388 84.563C286.372 85.287 287.003 85.864 286.956 85.997C286.772 86.521 278.983 96.514 278.807 96.452C278.7 96.414 277.736 95.731 276.665 94.935C273.627 92.676 269.827 90.17 265.199 87.374C262.629 85.821 254.995 81.984 251.736 80.607C250.804 80.214 250.004 79.844 249.958 79.785C249.911 79.726 249.759 79.655 249.619 79.627C249.479 79.599 248.412 79.206 247.248 78.755C241.145 76.387 234.028 74.171 233.617 74.512C233.302 74.774 229.968 86.386 229.976 87.197C229.976 87.253 230.543 87.435 231.235 87.601C237.664 89.142 249.102 93.827 256.43 97.919L258.076 98.838L255.142 103.907C253.528 106.695 252.254 109.065 252.311 109.174C252.367 109.284 253.692 110.174 255.255 111.152C276.797 124.631 293.029 145.847 300.102 169.771C300.571 171.355 300.987 172.753 301.029 172.88C301.076 173.024 301.213 173.064 301.399 172.987C301.561 172.92 304.17 172.2 307.197 171.386L312.701 169.906L313.255 172.125C313.94 174.871 314.885 179.59 315.301 182.349L315.614 184.426L315.258 184.506C315.063 184.549 313.15 184.812 311.008 185.09C308.865 185.367 306.236 185.709 305.165 185.849C293.837 187.332 293.078 187.433 286.624 188.309C285.322 188.486 284.243 188.617 284.227 188.6C284.212 188.583 284 187.388 283.757 185.944C283.385 183.729 282.678 180.447 281.953 177.561C279.684 168.533 274.489 157.879 268.04 149.026C264.51 144.181 253.171 132.771 251.594 132.478C251.318 132.427 246.229 139.167 246.334 139.443C246.382 139.568 247.464 140.553 248.74 141.634C250.015 142.714 251.63 144.13 252.329 144.779L253.599 145.96L251.112 148.455L248.625 150.951L247.15 149.607C236.769 140.154 225.773 134.557 212.616 132.03C203.466 130.272 190.661 130.661 182.69 132.94C181.788 133.198 181.787 133.122 182.745 136.698C183.778 140.551 183.605 140.271 184.762 139.964C188.278 139.031 192.817 138.383 196.825 138.243L199.831 138.137V141.1V144.064L196.994 144.167C189.331 144.448 180.686 146.805 173.805 150.488L172.081 151.411L171.413 150.261C171.046 149.628 170.329 148.387 169.82 147.502C164.736 138.661 161.856 133.657 161.73 133.446C161.647 133.307 160.702 131.683 159.631 129.839L157.685 126.485L158.224 126.147C159.343 125.445 165.961 122.264 168.007 121.445C184.361 114.894 202.019 113.511 219.052 117.448C221.899 118.107 222.185 118.138 222.185 117.792C222.185 117.659 222.521 116.306 222.932 114.787C223.343 113.267 223.911 111.147 224.193 110.076C224.476 109.005 225.281 105.997 225.982 103.392C226.684 100.786 227.202 98.604 227.134 98.542C226.967 98.389 222.439 97.325 219.729 96.803C206.778 94.306 191.857 94.393 178.831 97.043C177.015 97.412 174.959 97.864 174.261 98.046C173.564 98.229 172.946 98.324 172.888 98.258C172.769 98.121 162.908 61.324 162.911 61.026C162.913 60.788 162.412 60.899 158.933 61.908C149.327 64.696 138.7 69.137 130.006 73.997C128.999 74.561 128.123 75.019 128.059 75.017C127.995 75.015 126.309 72.177 124.312 68.709C111.427 46.338 110.354 44.502 110.049 44.312C109.69 44.088 105.657 46.477 99.928 50.308C79.917 63.688 63.344 80.26 49.978 100.254C47.821 103.481 44.771 108.34 43.76 110.161C43.657 110.347 42.871 111.757 42.014 113.294C39.209 118.325 34.377 128.409 33.453 131.16C33.296 131.626 32.952 132.464 32.688 133.023C28.607 141.648 21.338 169.328 21.338 176.241C21.338 176.902 20.114 176.674 31.583 178.148C36.613 178.794 41.224 179.397 41.829 179.488C42.434 179.579 46.016 180.053 49.788 180.541C53.561 181.028 56.697 181.472 56.759 181.526C56.82 181.581 56.729 182.921 56.557 184.505C56.114 188.564 55.896 191.831 55.77 196.3L55.661 200.169H69.321H82.981L82.983 199.111C83.001 191.069 84.405 180.063 86.45 171.947C86.772 170.668 87.019 169.613 86.998 169.602C86.977 169.592 84.188 168.848 80.799 167.948C77.411 167.048 74.604 166.278 74.562 166.236C74.329 166.003 77.217 157.066 78.893 152.836C79.446 151.439 79.849 150.25 79.789 150.193C79.728 150.136 76.859 148.928 73.412 147.507C69.966 146.087 67.127 144.907 67.103 144.886C66.888 144.693 72.275 133.529 74.253 130.069C74.862 129.003 75.36 128.084 75.36 128.027C75.36 127.97 72.273 126.141 68.501 123.963C64.729 121.784 61.643 119.942 61.643 119.868C61.643 119.618 64.547 114.925 66.856 111.444C72.25 103.312 80.72 92.973 86.927 86.943C91.908 82.104 96.467 78.055 100.774 74.645L102.394 73.361L106.955 79.3C109.463 82.566 111.611 85.373 111.728 85.537C111.918 85.802 111.712 86.019 109.866 87.498C106.174 90.458 103.563 92.761 99.853 96.331L97.844 98.265L102.891 103.314L107.938 108.363L110.072 106.299C116.601 99.981 124.251 94.075 132.219 89.199C133.546 88.387 134.747 87.722 134.886 87.722C135.026 87.722 135.14 87.659 135.14 87.581C135.14 87.179 144.032 82.663 148.794 80.646L150 80.135L152.249 85.58C153.485 88.574 154.632 91.329 154.797 91.702C156.326 95.155 159.372 102.844 159.253 102.952C159.17 103.027 158.188 103.489 157.07 103.979C150.44 106.887 142.852 111.32 137.314 115.519L136.017 116.503L132.475 111.893C130.526 109.357 128.816 107.259 128.673 107.232C128.364 107.172 124.846 109.988 121.623 112.874C117.212 116.825 111.453 122.929 108.045 127.266C107.533 127.918 107.057 128.476 106.986 128.507C106.598 128.679 107.281 129.283 111.586 132.576L116.313 136.192L114.915 138.079C112.407 141.466 108.888 146.967 108.893 147.493C108.895 147.658 110.535 148.695 113.296 150.278C115.717 151.665 117.697 152.855 117.697 152.923C117.697 152.991 117.088 154.18 116.343 155.566C111.592 164.407 108.111 174.671 106.53 184.505C106.335 185.715 106.137 186.945 106.09 187.237C106.025 187.64 106.076 187.795 106.304 187.883C107.038 188.165 115.553 189.174 115.665 188.992C115.729 188.889 115.987 187.559 116.238 186.037C117.385 179.105 119.55 171.911 122.434 165.453C123.427 163.23 125.917 158.358 126.218 158.051C126.374 157.892 127.226 158.314 130.059 159.954C132.663 161.462 133.737 162.003 133.829 161.853C137.461 155.918 140.374 152.036 144.601 147.502L145.785 146.232L148.417 148.85L151.049 151.468L152.535 150.03C153.986 148.626 155.428 147.356 157.003 146.095L157.782 145.471L159.627 147.873C160.643 149.195 161.531 150.37 161.601 150.484C161.685 150.621 161.109 151.2 159.907 152.186C148.744 161.345 140.968 174.838 138.451 189.416C138.002 192.018 138.339 191.829 134.959 191.373C131.593 190.919 131.306 190.921 131.189 191.406C130.715 193.367 130.625 204.595 131.06 207.62C131.146 208.225 131.19 208.748 131.156 208.782C131.122 208.815 127.543 209.311 123.203 209.883C115.363 210.916 115.311 210.925 115.405 211.298C115.457 211.505 115.69 212.8 115.923 214.177C116.155 215.554 116.605 217.824 116.921 219.221C117.237 220.618 117.475 221.782 117.451 221.808C117.426 221.833 115.7 222.311 113.614 222.869C111.529 223.427 109.441 223.995 108.975 224.13C106.612 224.818 87.062 229.975 86.819 229.975C86.46 229.975 86.448 229.866 87.053 231.982C90.968 245.652 97.123 258.223 105.474 269.602C106.124 270.487 106.623 271.264 106.583 271.329C106.543 271.394 102.265 274.706 97.074 278.689C91.884 282.672 87.192 286.276 86.646 286.698L85.655 287.465L85.243 286.959C82.248 283.278 76.863 274.973 73.572 268.959C71.224 264.666 66.892 255.49 67.111 255.271C67.236 255.146 78.927 250.302 79.383 250.187C80.002 250.03 79.991 249.87 79.243 248.05C75.852 239.794 73.017 229.4 71.542 219.814C71.292 218.184 71.072 216.833 71.055 216.813C71.037 216.792 64.413 217.649 56.333 218.718C48.254 219.786 41.522 220.66 41.373 220.66C41.007 220.66 41.129 221.899 42.004 227.07C43.884 238.18 47.726 251.69 51.465 260.34L51.817 261.154L51.268 261.382C50.967 261.508 46.838 263.22 42.093 265.187C37.349 267.153 33.437 268.793 33.4 268.83C33.05 269.18 38.951 281.595 42.36 287.679C43 288.82 43.522 289.829 43.522 289.923C43.522 290.476 43.526 290.474 53.243 284.857C57.612 282.332 61.203 280.286 61.225 280.311C61.246 280.335 61.932 281.461 62.749 282.811C65.473 287.314 68.202 291.374 71.277 295.497C72.647 297.334 72.702 297.441 72.388 297.656C71.219 298.456 56.995 309.517 56.951 309.66C56.797 310.159 64.414 319.122 70.181 325.229L72.2 327.367L65.186 334.402L58.171 341.437L59.865 343.041C66.955 349.755 72.908 354.92 77.761 358.571L78.384 359.04L78.594 358.648C78.709 358.432 81.287 355.018 84.321 351.061C87.356 347.105 89.992 343.656 90.178 343.398C90.364 343.139 92.993 339.711 96.02 335.78C99.047 331.848 102.052 327.943 102.697 327.102C103.342 326.26 107.704 320.567 112.392 314.451C117.374 307.95 120.875 303.237 120.819 303.105C120.767 302.98 119.779 302.131 118.623 301.217C115.981 299.127 112.794 296.332 110.199 293.831L108.191 291.895L117.036 283.049L125.881 274.203L123.838 272.029C116.185 263.89 110.237 255.295 105.574 245.642C103.882 242.138 103.113 240.337 103.269 240.243C103.464 240.127 112.007 236.607 112.235 236.548C112.363 236.516 112.897 237.491 113.595 239.035C117.079 246.739 121.684 254.094 127.062 260.542C129.314 263.243 132.724 266.892 132.995 266.892C133.218 266.892 139.881 260.281 139.881 260.06C139.881 259.983 139.049 259.031 138.032 257.945C133.905 253.536 129.428 247.595 126.886 243.155L126.531 242.534L130.158 240.45C132.153 239.304 133.785 238.306 133.785 238.232C133.785 238.157 133.601 237.804 133.375 237.448C132.828 236.58 130.657 232.241 129.974 230.648L129.427 229.374L132.593 228.065C136.334 226.519 135.994 226.564 136.39 227.562C138.786 233.611 144.157 241.656 149.928 247.841L151.034 249.026L153.615 246.457L156.196 243.887L154.621 242.223C147.483 234.681 142.146 224.828 139.638 214.564C139.13 212.487 138.527 209.27 138.527 208.643V208.207L141.356 207.836C142.912 207.632 144.214 207.494 144.25 207.53C144.286 207.566 144.462 208.458 144.641 209.513C147.495 226.339 157.79 240.917 172.699 249.248C174.214 250.094 177.77 251.82 177.998 251.82C178.242 251.82 178.191 252.036 177.631 253.369C177.344 254.054 176.853 255.224 176.54 255.97C175.853 257.61 164.113 285.99 162.74 289.331C160.706 294.282 155.587 306.644 155.202 307.536C154.981 308.048 151.247 317.079 146.904 327.604C142.562 338.129 138.872 347.045 138.705 347.417C136.916 351.406 123.286 384.827 123.402 384.943C123.682 385.223 131.968 388.334 136.24 389.763C145.569 392.884 155.061 395.298 164.86 397.041C167.293 397.474 173.977 398.479 174.03 398.42C174.044 398.404 176.315 381.169 179.075 360.119C181.836 339.069 184.259 320.601 184.461 319.079L184.827 316.312L185.682 316.417C199.614 318.135 216.887 316.971 229.551 313.461C236.686 311.483 244.877 308.64 244.877 308.141C244.877 308.035 242.972 303.353 240.644 297.737C238.315 292.122 236.41 287.419 236.41 287.286C236.41 286.957 236.494 286.934 233.898 287.957C220.211 293.353 204.899 295.375 189.702 293.793L187.787 293.594L187.882 292.987C187.935 292.653 189.051 284.187 190.362 274.174C191.674 264.162 192.769 255.947 192.797 255.919C192.825 255.891 193.627 255.948 194.579 256.046C196.758 256.269 203.296 256.272 205.404 256.05C206.28 255.958 207.025 255.91 207.059 255.944C207.145 256.031 208.632 267.204 208.634 267.787C208.638 268.446 208.811 268.467 211.097 268.083C212.728 267.809 217.732 266.746 217.909 266.636C217.933 266.621 217.219 263.888 216.323 260.561C215.426 257.235 214.729 254.478 214.772 254.435C214.816 254.391 215.517 254.162 216.33 253.926C223.751 251.775 231.655 247.291 237.82 241.735L239.653 240.082L241.511 241.929L243.37 243.776L242.134 244.966C241.454 245.62 240.174 246.744 239.289 247.463C238.404 248.183 237.451 248.967 237.172 249.206C236.892 249.445 235.445 250.449 233.954 251.438C232.464 252.427 231.118 253.342 230.964 253.472C230.708 253.687 230.833 253.967 232.359 256.611C233.281 258.208 234.058 259.584 234.087 259.67C234.183 259.959 238.385 257.368 240.667 255.613C241.199 255.204 241.712 254.869 241.808 254.869C241.903 254.869 242.042 254.773 242.117 254.657C242.191 254.541 243.164 253.683 244.279 252.752C258.908 240.528 268.09 221.894 268.707 203.175L268.806 200.169H276.698H284.589L284.484 203.26C284.29 208.977 283.69 213.505 282.352 219.349C282.016 220.817 281.789 222.066 281.848 222.124C281.906 222.183 283.918 222.76 286.318 223.406C288.719 224.052 290.713 224.611 290.751 224.649C290.945 224.842 288.592 232.077 287.469 234.737C287.146 235.505 286.899 236.147 286.921 236.165C287.118 236.326 288.68 236.998 292.718 238.661C295.326 239.735 302.449 242.678 308.547 245.201C314.645 247.724 319.751 249.788 319.893 249.787C320.065 249.787 320.396 249.169 320.875 247.956C326.379 234.015 329.489 218.921 329.838 204.445L329.942 200.169H344.776H359.61L359.568 202.752C359.368 214.797 357.738 227.36 354.941 238.394C354.569 239.864 354.157 241.487 354.027 242C351.103 253.539 345.082 267.914 338.033 280.186C328.104 297.475 314.886 312.58 297.629 326.36C292.304 330.613 283.378 336.44 276.149 340.383C271.511 342.913 261.848 347.502 261.159 347.502C261.053 347.502 260.965 347.55 260.965 347.609C260.965 347.705 268.301 365.525 268.834 366.723C268.959 367.003 270.681 371.156 272.661 375.953C274.642 380.749 276.314 384.734 276.377 384.808C276.767 385.264 290.891 378.396 299.613 373.511C311.003 367.13 325.587 356.368 335.732 346.856C337.036 345.634 338.865 343.926 339.797 343.062C340.728 342.197 342.122 340.804 342.894 339.966C343.666 339.128 345.37 337.299 346.681 335.902C356.18 325.779 367.018 311.096 373.341 299.783C377.877 291.669 384.589 278.009 384.589 276.894C384.589 276.795 384.666 276.715 384.759 276.715C384.852 276.715 384.928 276.615 384.928 276.492C384.928 276.37 385.659 274.37 386.553 272.047C404.36 225.766 404.354 173.917 386.537 127.942C385.635 125.614 384.859 123.585 384.813 123.434C384.709 123.087 385.213 122.896 374.652 127.28C370.071 129.181 366.208 130.737 366.067 130.737C365.927 130.737 365.772 130.801 365.724 130.879C365.675 130.957 361.516 132.728 356.481 134.814C351.424 136.909 347.363 138.683 347.408 138.778C348.99 142.127 352.833 153.287 354.027 158C354.157 158.513 354.574 160.152 354.953 161.643C356.247 166.727 358.42 178.47 358.122 178.768C358.034 178.856 343.394 180.857 342.803 180.862C342.686 180.863 342.591 180.666 342.591 180.425C342.591 180.183 342.366 178.602 342.091 176.911C339.47 160.809 334.233 145.501 326.455 131.205C324.544 127.693 324.547 127.696 323.659 128.265C323.314 128.487 320.745 129.981 317.951 131.585C313.35 134.227 308.819 136.844 303.238 140.082C302.132 140.724 301.2 141.223 301.168 141.191C301.136 141.158 300.677 140.412 300.149 139.533C298.343 136.527 293.794 129.842 292.778 128.701C292.652 128.56 292.13 127.913 291.617 127.263C289.855 125.029 286.624 121.334 284.687 119.339L282.746 117.339L297.935 102.149C306.289 93.795 313.124 86.908 313.124 86.845C313.124 86.451 304.459 78.654 300.295 75.302C298.78 74.082 297.561 73.028 297.585 72.958C297.609 72.889 300.068 69.654 303.048 65.769C306.029 61.885 308.692 58.402 308.967 58.031L309.467 57.356L308.798 56.777C306.622 54.895 297.717 48.825 292.952 45.975C291.426 45.062 290.151 44.294 290.118 44.268C290.085 44.242 292.233 40.456 294.892 35.854C297.551 31.252 299.772 27.303 299.829 27.079C299.924 26.698 299.716 26.551 296.748 24.902C268.755 9.348 236.746 0.658998 205.207 0.051998L199.831 -0.052002V10.038ZM198.222 56.224C198.159 56.326 198.389 56.393 198.805 56.393C199.183 56.393 199.492 56.317 199.492 56.224C199.492 56.13 199.23 56.054 198.909 56.054C198.589 56.054 198.279 56.13 198.222 56.224ZM249.992 78.781C249.758 79.014 249.713 79.491 249.937 79.352C250.065 79.273 250.328 78.577 250.23 78.577C250.21 78.577 250.103 78.669 249.992 78.781Z" fill="#74D7D1"/>
</g>
<defs>
<clipPath id="clip0_3_12">
<rect width="400" height="400" fill="white"/>
</clipPath>
</defs>
</svg>
