<svg width="782" height="187" viewBox="0 0 782 187" fill="none" xmlns="http://www.w3.org/2000/svg">
<rect x="8" y="12" width="26.003" height="135.55" rx="2.9363" fill="#FFBE26" stroke="#FFBE26" stroke-width="4"/>
<rect x="50.9202" y="26.9806" width="26.003" height="120.569" rx="2.9363" fill="#FFBE26" stroke="#FFBE26" stroke-width="4"/>
<rect x="90.5039" y="39.2422" width="25.8927" height="113.464" rx="2.9363" transform="rotate(-15.9527 90.5039 39.2422)" fill="#FFBE26" stroke="#FFBE26" stroke-width="4"/>
<path d="M182.507 100.696V130H171.343V45.639H195.066C198.618 45.639 202.043 46.3578 205.341 47.7956C208.639 49.1487 211.557 51.0939 214.094 53.631C216.631 56.2528 218.577 59.2551 219.93 62.638C221.368 65.9363 222.086 69.4461 222.086 73.1673C222.086 76.8885 221.368 80.4405 219.93 83.8234C218.577 87.1218 216.631 90.0395 214.094 92.5767C211.557 95.1139 208.639 97.1013 205.341 98.539C202.043 99.9768 198.618 100.696 195.066 100.696H182.507ZM182.507 57.1831V89.4052H195.066C199.463 89.4052 203.184 87.7983 206.229 84.5846C209.358 81.4554 210.923 77.6496 210.923 73.1673C210.923 68.7695 209.358 65.0061 206.229 61.8769C203.1 58.7477 199.379 57.1831 195.066 57.1831H182.507ZM279.832 130V120.359C277.126 123.488 273.996 125.983 270.444 127.843C266.892 129.704 263.129 130.634 259.154 130.634C254.756 130.634 250.612 129.831 246.722 128.224C242.916 126.617 239.533 124.334 236.573 121.374C233.613 118.498 231.287 115.115 229.596 111.225C227.989 107.25 227.186 103.106 227.186 98.7928C227.186 94.4796 227.989 90.3778 229.596 86.4875C231.287 82.5126 233.613 79.0451 236.573 76.085C239.533 73.125 242.916 70.8416 246.722 69.2347C250.612 67.6278 254.756 66.8244 259.154 66.8244C263.213 66.8244 267.019 67.6701 270.571 69.3615C274.208 71.053 277.295 73.421 279.832 76.4656V68.0929H291.249V130H279.832ZM259.154 78.1148C256.363 78.1148 253.657 78.6645 251.035 79.7639C248.498 80.7788 246.299 82.2166 244.438 84.0771C242.578 85.9377 241.098 88.1789 239.998 90.8007C238.983 93.3378 238.476 96.0019 238.476 98.7928C238.476 101.584 238.983 104.248 239.998 106.785C241.098 109.322 242.578 111.521 244.438 113.382C246.299 115.242 248.498 116.722 251.035 117.822C253.657 118.836 256.363 119.344 259.154 119.344C261.945 119.344 264.609 118.836 267.146 117.822C269.683 116.722 271.882 115.242 273.743 113.382C275.603 111.521 277.041 109.322 278.056 106.785C279.155 104.248 279.705 101.584 279.705 98.7928C279.705 96.0019 279.155 93.3378 278.056 90.8007C277.041 88.1789 275.603 85.9377 273.743 84.0771C271.882 82.2166 269.683 80.7788 267.146 79.7639C264.609 78.6645 261.945 78.1148 259.154 78.1148ZM335.996 131.142C331.175 131.142 327.158 130.381 323.944 128.858C320.73 127.251 317.813 124.757 315.191 121.374V157.021H303.9V68.0929H315.191V76.9731C317.813 73.7593 320.942 71.1798 324.578 69.2347C328.215 67.2895 332.021 66.3169 335.996 66.3169C340.309 66.3169 344.411 67.1626 348.301 68.8541C352.276 70.461 355.701 72.7867 358.576 75.8313C361.537 78.8759 363.82 82.3857 365.427 86.3606C367.118 90.2509 367.964 94.395 367.964 98.7928C367.964 103.191 367.118 107.335 365.427 111.225C363.82 115.115 361.537 118.583 358.576 121.627C355.701 124.587 352.276 126.913 348.301 128.605C344.411 130.296 340.309 131.142 335.996 131.142ZM335.996 77.8611C333.205 77.8611 330.541 78.4108 328.004 79.5102C325.466 80.5251 323.267 82.0051 321.407 83.9503C319.546 85.8955 318.066 88.1789 316.967 90.8007C315.867 93.3378 315.318 96.0019 315.318 98.7928C315.318 101.584 315.867 104.248 316.967 106.785C318.066 109.322 319.546 111.563 321.407 113.508C323.267 115.454 325.466 116.976 328.004 118.075C330.541 119.175 333.205 119.724 335.996 119.724C338.787 119.724 341.451 119.175 343.988 118.075C346.525 116.976 348.724 115.454 350.584 113.508C352.445 111.563 353.883 109.322 354.898 106.785C355.997 104.248 356.547 101.584 356.547 98.7928C356.547 96.0019 355.997 93.3378 354.898 90.8007C353.883 88.1789 352.445 85.8955 350.584 83.9503C348.724 82.0051 346.525 80.5251 343.988 79.5102C341.451 78.4108 338.787 77.8611 335.996 77.8611ZM407.636 78.7491C405.606 77.8188 403.788 77.3536 402.181 77.3536C398.798 77.3536 396.007 78.5376 393.809 80.9057C391.44 83.4428 390.256 86.3606 390.256 89.6589V130H379.347V89.6589C379.347 85.092 380.488 80.9057 382.772 77.0999C385.14 73.2942 388.354 70.3341 392.413 68.2198C395.458 66.7821 398.714 66.0632 402.181 66.0632C404.972 66.0632 407.636 66.5706 410.173 67.5855C412.71 68.6004 415.375 70.2495 418.165 72.533L407.636 78.7491ZM459.389 130.634C455.414 130.634 451.566 129.704 447.844 127.843C444.208 125.983 441.036 123.446 438.33 120.232V130H427.166V45.7658H438.33V75.7045C440.191 73.0827 442.939 70.757 446.576 68.7272C450.297 66.6975 454.568 65.6826 459.389 65.6826C463.702 65.6826 467.846 66.5284 471.821 68.2198C475.796 69.9113 479.221 72.237 482.096 75.197C485.056 78.2416 487.34 81.7514 488.947 85.7263C490.638 89.6166 491.484 93.7607 491.484 98.1585C491.484 102.556 490.638 106.743 488.947 110.717C487.34 114.608 485.056 118.075 482.096 121.12C479.221 124.08 475.796 126.406 471.821 128.097C467.846 129.789 463.702 130.634 459.389 130.634ZM459.389 77.2268C456.598 77.2268 453.891 77.7765 451.27 78.8759C448.732 79.8908 446.534 81.3708 444.673 83.316C442.812 85.2612 441.332 87.5446 440.233 90.1664C439.133 92.7035 438.584 95.3676 438.584 98.1585C438.584 103.825 440.613 108.772 444.673 113.001C446.534 114.946 448.732 116.468 451.27 117.568C453.891 118.667 456.598 119.217 459.389 119.217C462.179 119.217 464.843 118.667 467.381 117.568C469.918 116.468 472.117 114.946 473.977 113.001C478.037 108.772 480.066 103.825 480.066 98.1585C480.066 95.3676 479.517 92.7035 478.417 90.1664C477.318 87.5446 475.838 85.2612 473.977 83.316C472.117 81.3708 469.918 79.8908 467.381 78.8759C464.843 77.7765 462.179 77.2268 459.389 77.2268ZM551.761 130V120.359C549.054 123.488 545.925 125.983 542.373 127.843C538.821 129.704 535.057 130.634 531.083 130.634C526.685 130.634 522.541 129.831 518.65 128.224C514.845 126.617 511.462 124.334 508.502 121.374C505.542 118.498 503.216 115.115 501.524 111.225C499.918 107.25 499.114 103.106 499.114 98.7928C499.114 94.4796 499.918 90.3778 501.524 86.4875C503.216 82.5126 505.542 79.0451 508.502 76.085C511.462 73.125 514.845 70.8416 518.65 69.2347C522.541 67.6278 526.685 66.8244 531.083 66.8244C535.142 66.8244 538.948 67.6701 542.5 69.3615C546.136 71.053 549.223 73.421 551.761 76.4656V68.0929H563.178V130H551.761ZM531.083 78.1148C528.292 78.1148 525.585 78.6645 522.964 79.7639C520.426 80.7788 518.228 82.2166 516.367 84.0771C514.506 85.9377 513.026 88.1789 511.927 90.8007C510.912 93.3378 510.405 96.0019 510.405 98.7928C510.405 101.584 510.912 104.248 511.927 106.785C513.026 109.322 514.506 111.521 516.367 113.382C518.228 115.242 520.426 116.722 522.964 117.822C525.585 118.836 528.292 119.344 531.083 119.344C533.873 119.344 536.537 118.836 539.075 117.822C541.612 116.722 543.811 115.242 545.671 113.382C547.532 111.521 548.97 109.322 549.984 106.785C551.084 104.248 551.634 101.584 551.634 98.7928C551.634 96.0019 551.084 93.3378 549.984 90.8007C548.97 88.1789 547.532 85.9377 545.671 84.0771C543.811 82.2166 541.612 80.7788 539.075 79.7639C536.537 78.6645 533.873 78.1148 531.083 78.1148ZM603.797 130.634C599.484 130.634 595.382 129.831 591.492 128.224C587.686 126.533 584.303 124.207 581.343 121.247C578.468 118.371 576.184 114.988 574.493 111.098C572.886 107.123 572.083 102.979 572.083 98.6659C572.083 94.3527 572.886 90.2509 574.493 86.3606C576.184 82.3857 578.468 78.9605 581.343 76.085C584.303 73.125 587.686 70.8416 591.492 69.2347C595.382 67.5432 599.484 66.6975 603.797 66.6975C613.777 66.6975 622.234 70.9261 629.169 79.3834L619.274 85.092C614.876 80.4405 609.717 78.1148 603.797 78.1148C601.006 78.1148 598.342 78.6645 595.805 79.7639C593.353 80.7788 591.196 82.2166 589.335 84.0771C587.475 85.9377 585.995 88.1366 584.895 90.6738C583.796 93.211 583.246 95.875 583.246 98.6659C583.246 101.457 583.796 104.121 584.895 106.658C585.995 109.195 587.475 111.394 589.335 113.255C591.196 115.115 593.353 116.595 595.805 117.695C598.342 118.71 601.006 119.217 603.797 119.217C609.717 119.217 614.876 116.891 619.274 112.24L629.169 117.948C622.234 126.406 613.777 130.634 603.797 130.634ZM671.067 130L651.785 106.531V130H640.621V45.639H651.785V82.0474L669.037 65.8095H685.656L655.59 93.7184L685.783 130H671.067Z" fill="white"/>
</svg>
