<svg width="680" height="147" viewBox="0 0 680 147" fill="none" xmlns="http://www.w3.org/2000/svg">
<path d="M25.0667 1H4.9363C2.76234 1 1 2.76234 1 4.9363V134.614C1 136.788 2.76234 138.55 4.9363 138.55H25.0667C27.2407 138.55 29.003 136.788 29.003 134.614V4.9363C29.003 2.76234 27.2407 1 25.0667 1Z" fill="#FFBE26" stroke="#FFBE26" stroke-width="2"/>
<path d="M67.9886 15.9805H47.8582C45.6842 15.9805 43.9219 17.7428 43.9219 19.9168V134.613C43.9219 136.787 45.6842 138.549 47.8582 138.549H67.9886C70.1625 138.549 71.9249 136.787 71.9249 134.613V19.9168C71.9249 17.7428 70.1625 15.9805 67.9886 15.9805Z" fill="#FFBE26" stroke="#FFBE26" stroke-width="2"/>
<path d="M106.301 21.8453L87.0523 27.3477C84.962 27.9452 83.7519 30.124 84.3494 32.2143L113.92 135.662C114.518 137.752 116.697 138.963 118.787 138.365L138.036 132.863C140.126 132.265 141.336 130.086 140.739 127.996L111.168 24.5481C110.57 22.4579 108.392 21.2478 106.301 21.8453Z" fill="#FFBE26" stroke="#FFBE26" stroke-width="2"/>
<path d="M176.508 90.5697V119.874H165.344V35.5127H189.067C192.619 35.5127 196.044 36.2315 199.342 37.6693C202.64 39.0224 205.558 40.9676 208.095 43.5047C210.632 46.1265 212.578 49.1288 213.931 52.5117C215.369 55.81 216.087 59.3198 216.087 63.041C216.087 66.7622 215.369 70.3142 213.931 73.6971C212.578 76.9955 210.632 79.9132 208.095 82.4504C205.558 84.9876 202.64 86.975 199.342 88.4127C196.044 89.8505 192.619 90.5697 189.067 90.5697H176.508ZM176.508 47.0568V79.2789H189.067C193.464 79.2789 197.185 77.672 200.23 74.4583C203.359 71.3291 204.924 67.5233 204.924 63.041C204.924 58.6432 203.359 54.8798 200.23 51.7506C197.101 48.6214 193.38 47.0568 189.067 47.0568H176.508ZM273.833 119.874V110.233C271.127 113.362 267.997 115.857 264.445 117.717C260.893 119.578 257.13 120.508 253.155 120.508C248.757 120.508 244.613 119.705 240.723 118.098C236.917 116.491 233.534 114.208 230.574 111.248C227.614 108.372 225.288 104.989 223.597 101.099C221.99 97.1237 221.187 92.9797 221.187 88.6665C221.187 84.3533 221.99 80.2515 223.597 76.3612C225.288 72.3863 227.614 68.9188 230.574 65.9587C233.534 62.9987 236.917 60.7153 240.723 59.1084C244.613 57.5015 248.757 56.6981 253.155 56.6981C257.214 56.6981 261.02 57.5438 264.572 59.2352C268.209 60.9267 271.296 63.2947 273.833 66.3393V57.9666H285.25V119.874H273.833ZM253.155 67.9885C250.364 67.9885 247.658 68.5382 245.036 69.6376C242.499 70.6525 240.3 72.0903 238.439 73.9508C236.579 75.8114 235.099 78.0526 233.999 80.6744C232.984 83.2115 232.477 85.8756 232.477 88.6665C232.477 91.4577 232.984 94.1217 233.999 96.6587C235.099 99.1957 236.579 101.395 238.439 103.256C240.3 105.116 242.499 106.596 245.036 107.696C247.658 108.71 250.364 109.218 253.155 109.218C255.946 109.218 258.61 108.71 261.147 107.696C263.684 106.596 265.883 105.116 267.744 103.256C269.604 101.395 271.042 99.1957 272.057 96.6587C273.156 94.1217 273.706 91.4577 273.706 88.6665C273.706 85.8756 273.156 83.2115 272.057 80.6744C271.042 78.0526 269.604 75.8114 267.744 73.9508C265.883 72.0903 263.684 70.6525 261.147 69.6376C258.61 68.5382 255.946 67.9885 253.155 67.9885ZM329.997 121.016C325.176 121.016 321.159 120.255 317.945 118.732C314.731 117.125 311.814 114.631 309.192 111.248V146.895H297.901V57.9666H309.192V66.8468C311.814 63.633 314.943 61.0535 318.579 59.1084C322.216 57.1632 326.022 56.1906 329.997 56.1906C334.31 56.1906 338.412 57.0363 342.302 58.7278C346.277 60.3347 349.702 62.6604 352.577 65.705C355.538 68.7496 357.821 72.2594 359.428 76.2343C361.119 80.1246 361.965 84.2687 361.965 88.6665C361.965 93.0647 361.119 97.2087 359.428 101.099C357.821 104.989 355.538 108.457 352.577 111.501C349.702 114.461 346.277 116.787 342.302 118.479C338.412 120.17 334.31 121.016 329.997 121.016ZM329.997 67.7348C327.206 67.7348 324.542 68.2845 322.005 69.3839C319.467 70.3988 317.268 71.8788 315.408 73.824C313.547 75.7692 312.067 78.0526 310.968 80.6744C309.868 83.2115 309.319 85.8756 309.319 88.6665C309.319 91.4577 309.868 94.1217 310.968 96.6587C312.067 99.1957 313.547 101.437 315.408 103.382C317.268 105.328 319.467 106.85 322.005 107.949C324.542 109.049 327.206 109.598 329.997 109.598C332.788 109.598 335.452 109.049 337.989 107.949C340.526 106.85 342.725 105.328 344.585 103.382C346.446 101.437 347.884 99.1957 348.899 96.6587C349.998 94.1217 350.548 91.4577 350.548 88.6665C350.548 85.8756 349.998 83.2115 348.899 80.6744C347.884 78.0526 346.446 75.7692 344.585 73.824C342.725 71.8788 340.526 70.3988 337.989 69.3839C335.452 68.2845 332.788 67.7348 329.997 67.7348ZM401.637 68.6228C399.607 67.6925 397.789 67.2273 396.182 67.2273C392.799 67.2273 390.008 68.4113 387.81 70.7794C385.441 73.3165 384.257 76.2343 384.257 79.5326V119.874H373.348V79.5326C373.348 74.9657 374.489 70.7794 376.773 66.9736C379.141 63.1679 382.355 60.2078 386.414 58.0935C389.459 56.6558 392.715 55.9369 396.182 55.9369C398.973 55.9369 401.637 56.4443 404.174 57.4592C406.711 58.4741 409.376 60.1232 412.166 62.4067L401.637 68.6228ZM453.39 120.508C449.415 120.508 445.567 119.578 441.845 117.717C438.209 115.857 435.037 113.32 432.331 110.106V119.874H421.167V35.6395H432.331V65.5782C434.192 62.9564 436.94 60.6307 440.577 58.6009C444.298 56.5712 448.569 55.5563 453.39 55.5563C457.703 55.5563 461.847 56.4021 465.822 58.0935C469.797 59.785 473.222 62.1107 476.097 65.0707C479.057 68.1153 481.341 71.6251 482.948 75.6C484.639 79.4903 485.485 83.6344 485.485 88.0322C485.485 92.4297 484.639 96.6167 482.948 100.591C481.341 104.482 479.057 107.949 476.097 110.994C473.222 113.954 469.797 116.28 465.822 117.971C461.847 119.663 457.703 120.508 453.39 120.508ZM453.39 67.1005C450.599 67.1005 447.892 67.6502 445.271 68.7496C442.733 69.7645 440.535 71.2445 438.674 73.1897C436.813 75.1349 435.333 77.4183 434.234 80.0401C433.134 82.5772 432.585 85.2413 432.585 88.0322C432.585 93.6987 434.614 98.6457 438.674 102.875C440.535 104.82 442.733 106.342 445.271 107.442C447.892 108.541 450.599 109.091 453.39 109.091C456.18 109.091 458.844 108.541 461.382 107.442C463.919 106.342 466.118 104.82 467.978 102.875C472.038 98.6457 474.067 93.6987 474.067 88.0322C474.067 85.2413 473.518 82.5772 472.418 80.0401C471.319 77.4183 469.839 75.1349 467.978 73.1897C466.118 71.2445 463.919 69.7645 461.382 68.7496C458.844 67.6502 456.18 67.1005 453.39 67.1005ZM545.762 119.874V110.233C543.055 113.362 539.926 115.857 536.374 117.717C532.822 119.578 529.058 120.508 525.084 120.508C520.686 120.508 516.542 119.705 512.651 118.098C508.846 116.491 505.463 114.208 502.503 111.248C499.543 108.372 497.217 104.989 495.525 101.099C493.919 97.1237 493.115 92.9797 493.115 88.6665C493.115 84.3533 493.919 80.2515 495.525 76.3612C497.217 72.3863 499.543 68.9188 502.503 65.9587C505.463 62.9987 508.846 60.7153 512.651 59.1084C516.542 57.5015 520.686 56.6981 525.084 56.6981C529.143 56.6981 532.949 57.5438 536.501 59.2352C540.137 60.9267 543.224 63.2947 545.762 66.3393V57.9666H557.179V119.874H545.762ZM525.084 67.9885C522.293 67.9885 519.586 68.5382 516.965 69.6376C514.427 70.6525 512.229 72.0903 510.368 73.9508C508.507 75.8114 507.027 78.0526 505.928 80.6744C504.913 83.2115 504.406 85.8756 504.406 88.6665C504.406 91.4577 504.913 94.1217 505.928 96.6587C507.027 99.1957 508.507 101.395 510.368 103.256C512.229 105.116 514.427 106.596 516.965 107.696C519.586 108.71 522.293 109.218 525.084 109.218C527.874 109.218 530.538 108.71 533.076 107.696C535.613 106.596 537.812 105.116 539.672 103.256C541.533 101.395 542.971 99.1957 543.985 96.6587C545.085 94.1217 545.635 91.4577 545.635 88.6665C545.635 85.8756 545.085 83.2115 543.985 80.6744C542.971 78.0526 541.533 75.8114 539.672 73.9508C537.812 72.0903 535.613 70.6525 533.076 69.6376C530.538 68.5382 527.874 67.9885 525.084 67.9885ZM597.798 120.508C593.485 120.508 589.383 119.705 585.493 118.098C581.687 116.407 578.304 114.081 575.344 111.121C572.469 108.245 570.185 104.862 568.494 100.972C566.887 96.9967 566.084 92.8527 566.084 88.5396C566.084 84.2264 566.887 80.1246 568.494 76.2343C570.185 72.2594 572.469 68.8342 575.344 65.9587C578.304 62.9987 581.687 60.7153 585.493 59.1084C589.383 57.4169 593.485 56.5712 597.798 56.5712C607.778 56.5712 616.235 60.7998 623.17 69.2571L613.275 74.9657C608.877 70.3142 603.718 67.9885 597.798 67.9885C595.007 67.9885 592.343 68.5382 589.806 69.6376C587.354 70.6525 585.197 72.0903 583.336 73.9508C581.476 75.8114 579.996 78.0103 578.896 80.5475C577.797 83.0847 577.247 85.7487 577.247 88.5396C577.247 91.3307 577.797 93.9947 578.896 96.5317C579.996 99.0687 581.476 101.268 583.336 103.129C585.197 104.989 587.354 106.469 589.806 107.569C592.343 108.584 595.007 109.091 597.798 109.091C603.718 109.091 608.877 106.765 613.275 102.114L623.17 107.822C616.235 116.28 607.778 120.508 597.798 120.508ZM665.068 119.874L645.786 96.4047V119.874H634.622V35.5127H645.786V71.9211L663.038 55.6832H679.657L649.591 83.5921L679.784 119.874H665.068Z" fill="white"/>
</svg>
