<svg width="100" height="100" viewBox="0 0 100 100" fill="none" xmlns="http://www.w3.org/2000/svg">
<path d="M11.7575 39C12.651 40.0338 30.1949 45.8251 36.2945 52.862C42.394 59.8996 45.0567 66.1801 44.1955 72.2188C43.3356 78.2575 39.6079 78.1576 37.98 80.3568C36.3521 82.5556 34.1043 85.2674 29.7846 84.9788C24.129 84.603 18.2974 81.8021 14.0857 72.08C9.87404 62.3576 10.198 53.2247 10.534 48.1575C10.87 43.0916 11.7499 39 11.7499 39H11.7575Z" fill="url(#paint0_linear_918_30)"/>
<path d="M10.3535 43L36.3535 81.6654L35.155 83" fill="url(#paint1_linear_918_30)"/>
<path fill-rule="evenodd" clip-rule="evenodd" d="M5.30549 97.416L5.4988 97.6627C6.05428 97.3331 6.38366 97.2335 6.72288 97.1308C6.98556 97.0514 7.25413 96.9701 7.63815 96.7789C10.5469 95.338 13.7317 93.1945 16.8606 91.0884L16.8607 91.0884C19.5212 89.2977 22.1414 87.5341 24.5173 86.2526C30.2999 83.1354 35.9332 81.6937 41.6441 80.232C44.8195 79.4193 48.019 78.6004 51.2814 77.484C54.9145 73.5017 61.7907 73.8394 68.667 74.1771C72.6963 74.3749 76.7256 74.5728 80.1026 73.9015C81.0403 73.7407 80.7624 73.4112 80.4145 72.9987C80.0444 72.5599 79.5951 72.0272 80.4462 71.504C81.6259 70.585 82.813 69.6761 84.0002 68.7671C86.3745 66.9493 88.7488 65.1316 91.0634 63.233C91.4174 63.3234 91.8227 63.17 92.2227 63.0185C92.8536 62.7796 93.4716 62.5456 93.8559 63.2804C94.4823 63.4576 94.468 63.0071 94.4502 62.4403C94.4337 61.9205 94.4143 61.3028 94.8828 60.9816C93.6387 60.0814 92.0118 61.3052 90.7194 62.2773C90.4978 62.444 90.2861 62.6033 90.0877 62.7432C89.0005 63.5117 87.6155 64.7231 86.0986 66.0499C82.8047 68.9311 78.8884 72.3567 76.0461 72.9733C72.0686 73.8344 64.6271 72.606 61.0723 70.1373C55.5192 73.3715 48.7178 74.9338 42.2752 76.4136L41.5877 76.5716C40.6152 76.7955 39.6378 76.9551 38.6739 77.1125C35.9814 77.5522 33.3949 77.9747 31.3182 79.7315C28.7508 81.9039 14.1719 90.1946 5.59291 94.0338C4.61327 94.1853 5.0949 96.5502 5.30549 97.416Z" fill="#3C3C3B"/>
<path d="M77.2623 3C76.054 4.96173 48.5004 19.1918 40.2303 32.5497C31.9611 45.9077 29.6019 56.4254 32.6001 66.3126C35.5975 76.1982 41.3277 75.753 44.5941 79.0131C47.861 82.2747 52.2925 86.2319 59.3713 84.634C68.6397 82.5409 77.5713 76.345 82.0144 58.9815C86.457 41.6172 83.5436 26.4118 81.6657 18.0161C79.7891 9.62124 77.2631 3 77.2631 3H77.2623Z" fill="url(#paint2_linear_918_30)"/>
<path d="M76.3535 6L43.3535 77.0479L45.2903 79" fill="url(#paint3_linear_918_30)"/>
<defs>
<linearGradient id="paint0_linear_918_30" x1="11.3309" y1="63.6452" x2="48.4264" y2="69.976" gradientUnits="userSpaceOnUse">
<stop stop-color="#89C442"/>
<stop offset="1" stop-color="#74B844"/>
</linearGradient>
<linearGradient id="paint1_linear_918_30" x1="8.57548" y1="60.2885" x2="40.2627" y2="65.661" gradientUnits="userSpaceOnUse">
<stop stop-color="#74B844"/>
<stop offset="1" stop-color="#4A9634"/>
</linearGradient>
<linearGradient id="paint2_linear_918_30" x1="-304.793" y1="-1138.83" x2="-364.059" y2="-1118.98" gradientUnits="userSpaceOnUse">
<stop stop-color="#C1EA71"/>
<stop offset="1" stop-color="#ACDA55"/>
</linearGradient>
<linearGradient id="paint3_linear_918_30" x1="-300.805" y1="-1123.5" x2="-351.833" y2="-1106.45" gradientUnits="userSpaceOnUse">
<stop stop-color="#ACDA55"/>
<stop offset="1" stop-color="#89C442"/>
</linearGradient>
</defs>
</svg>
