<svg width="100" height="100" viewBox="0 0 100 100" fill="none" xmlns="http://www.w3.org/2000/svg">
<path d="M12.5602 57.8819C10.8353 51.4443 11.1327 44.632 13.412 38.3692C15.6914 32.1065 19.8423 26.6966 25.3015 22.8738C30.7611 19.0507 37.2649 17 43.93 17C50.5951 17 57.0988 19.0507 62.5585 22.8738C68.0181 26.6964 72.1694 32.1061 74.4491 38.3689C76.7289 44.6316 77.0266 51.4441 75.302 57.8819M57.3416 57.8819H88.0411M7 57.8819H16.7493M69.644 70.0365H75.1064M86.6222 70.0365H92.0847M23.0526 82.1912H74.6718M58.4845 70.0365H54.4778C53.4108 70.037 52.3627 70.3183 51.439 70.8523C50.5152 71.3863 49.7483 72.1541 49.2153 73.0785C48.6819 74.0023 48.4011 75.0503 48.4011 76.1171C48.4011 77.1839 48.6819 78.2319 49.2153 79.1558C49.7488 80.0794 50.516 80.8463 51.4397 81.3795C52.3634 81.9127 53.4112 82.1934 54.4778 82.1934M16.7559 57.8819C17.5541 57.8819 18.3446 58.0392 19.0821 58.3447C19.8195 58.6503 20.4896 59.0981 21.054 59.6627C21.6183 60.2272 22.0659 60.8975 22.3712 61.635C22.6765 62.3726 22.8335 63.1631 22.8332 63.9614C22.8326 65.5728 22.1921 67.1181 21.0524 68.2573C19.9128 69.3965 18.3673 70.0365 16.7559 70.0365H36.1872C36.9857 70.0363 37.7763 70.1933 38.5141 70.4987C39.2518 70.8041 39.9221 71.252 40.4867 71.8165C41.0513 72.3811 41.4991 73.0514 41.8045 73.7892C42.1099 74.5269 42.267 75.3176 42.2667 76.116C42.2667 76.9143 42.1094 77.7047 41.8039 78.4422C41.4983 79.1797 41.0505 79.8498 40.4859 80.4141C39.9214 80.9785 39.2512 81.4261 38.5136 81.7314C37.776 82.0367 36.9855 82.1936 36.1872 82.1934" stroke="#EA6E4C" stroke-width="6.25" stroke-linecap="round" stroke-linejoin="round"/>
<path d="M57.3437 70.0367C56.2771 70.0367 55.2293 69.756 54.3056 69.2228C53.3818 68.6896 52.6147 67.9227 52.0812 66.9991C51.5478 66.0753 51.267 65.0273 51.267 63.9605C51.267 62.8937 51.5478 61.8457 52.0812 60.9218C52.6146 59.9975 53.3819 59.23 54.3061 58.6964C55.2303 58.1628 56.2787 57.8819 57.3459 57.8821" stroke="#EA6E4C" stroke-width="6.25" stroke-linecap="round" stroke-linejoin="round"/>
<path fill-rule="evenodd" clip-rule="evenodd" d="M72.9515 58.2083C73.848 55.418 74.3307 52.4524 74.3307 49.378C74.3307 32.9188 60.4937 19.5759 43.4248 19.5759C26.356 19.5759 12.5189 32.9188 12.5189 49.378C12.5189 52.8613 13.1386 56.2049 14.2775 59.3121H17.5567C20.8705 59.3121 23.5567 61.9984 23.5567 65.3121V71.4537H35.2173C38.531 71.4537 41.2173 74.14 41.2173 77.4537V79.1053C41.9464 79.1549 42.6826 79.1802 43.4248 79.1802C46.0928 79.1802 48.6818 78.8542 51.1513 78.2413V64.2083C51.1513 60.8946 53.8376 58.2083 57.1513 58.2083H72.9515Z" fill="#EA6E4C"/>
</svg>
