<svg width="97" height="100" viewBox="0 0 97 100" fill="none" xmlns="http://www.w3.org/2000/svg">
<path d="M48.5 1.5625C21.7272 1.5625 0 23.2617 0 50C0 76.7383 21.7272 98.4375 48.5 98.4375C75.2728 98.4375 97 76.7383 97 50C97 23.2617 75.2728 1.5625 48.5 1.5625Z" fill="#1ED760"/>
<path d="M79.5165 45.1367C78.4996 45.1367 77.8738 44.8828 76.9937 44.375C63.0695 36.0742 38.1742 34.082 22.0597 38.5742C21.3556 38.7695 20.4756 39.082 19.5369 39.082C16.9554 39.082 14.9802 37.0703 14.9802 34.4727C14.9802 31.8164 16.623 30.3125 18.383 29.8047C25.2669 27.793 32.9722 26.8359 41.3619 26.8359C55.6381 26.8359 70.5988 29.8047 81.5308 36.1719C83.0562 37.0508 84.0536 38.2617 84.0536 40.5859C84.0536 43.2422 81.9024 45.1367 79.5165 45.1367ZM73.454 60.0195C72.4371 60.0195 71.7526 59.5703 71.0486 59.1992C58.8258 51.9727 40.5992 49.0625 24.3869 53.457C23.4482 53.7109 22.9397 53.9648 22.0597 53.9648C19.9671 53.9648 18.2657 52.2656 18.2657 50.1758C18.2657 48.0859 19.2826 46.6992 21.297 46.1328C26.7337 44.6094 32.2877 43.4766 40.4232 43.4766C53.1153 43.4766 65.3772 46.6211 75.0381 52.3633C76.6222 53.3008 77.248 54.5117 77.248 56.2109C77.2284 58.3203 75.5857 60.0195 73.454 60.0195ZM68.1933 72.832C67.372 72.832 66.8635 72.5781 66.1008 72.1289C53.8976 64.7852 39.6996 64.4727 25.6776 67.3437C24.9149 67.5391 23.9175 67.8516 23.3504 67.8516C21.4534 67.8516 20.2605 66.3477 20.2605 64.7656C20.2605 62.7539 21.4534 61.7969 22.9201 61.4844C38.9369 57.9492 55.3056 58.2617 69.2689 66.6016C70.4619 67.3633 71.1659 68.0469 71.1659 69.8242C71.1659 71.6016 69.7774 72.832 68.1933 72.832Z" fill="black"/>
</svg>
